<svg width="253" height="178" viewBox="0 0 253 178" fill="none" xmlns="http://www.w3.org/2000/svg">
<path d="M39.7479 163.481L39.7584 163.488L39.769 163.494C51.015 170.211 63.8387 173.52 78.12 173.52C92.3954 173.52 105.152 170.213 116.261 163.488C127.536 156.752 136.253 146.98 142.426 134.331C148.775 121.625 151.86 106.466 151.86 89C151.86 71.534 148.775 56.3747 142.426 43.6686C136.253 31.0202 127.537 21.2487 116.261 14.5121C105.153 7.7871 92.3958 4.47998 78.12 4.47998C63.8387 4.47998 51.015 7.78946 39.769 14.5058L39.7584 14.5121L39.7479 14.5185C28.6222 21.2566 19.9168 31.0221 13.6023 43.6511L13.5935 43.6687L13.5849 43.6863C7.38958 56.3867 4.38 71.5389 4.38 89C4.38 106.461 7.38958 121.613 13.5849 134.314L13.5935 134.331L13.6023 134.349C19.9168 146.978 28.6222 156.743 39.7479 163.481ZM89.4502 111.234L89.4372 111.28L89.4254 111.326C88.0371 116.741 86.2478 119.861 84.4826 121.43C82.537 123.16 80.4644 123.94 78.12 123.94C75.7757 123.94 73.703 123.16 71.7575 121.43C69.9629 119.835 68.1125 116.684 66.5829 111.28C65.2437 106.031 64.52 98.6533 64.52 89C64.52 79.1811 65.2469 71.8158 66.5794 66.7317C68.1097 61.3206 69.9615 58.166 71.7575 56.5696C73.703 54.8403 75.7757 54.06 78.12 54.06C80.4644 54.06 82.537 54.8403 84.4826 56.5696C86.2478 58.1388 88.0371 61.2594 89.4254 66.6735L89.4406 66.7331L89.4578 66.7922C90.9177 71.8358 91.72 79.1744 91.72 89C91.72 98.6654 90.9202 106.022 89.4502 111.234ZM188.876 166V170H192.876H244.796H248.796V166V12V7.99997H244.796H166.476H162.476V12V51.16V55.16H166.476H188.876V166Z" stroke="#D2D2D2" stroke-width="8"/>
</svg>
