<svg width="303" height="178" viewBox="0 0 303 178" fill="none" xmlns="http://www.w3.org/2000/svg">
<path d="M39.7479 163.481L39.7584 163.488L39.769 163.494C51.015 170.211 63.8387 173.52 78.12 173.52C92.3954 173.52 105.152 170.213 116.261 163.488C127.536 156.752 136.253 146.98 142.426 134.331C148.775 121.625 151.86 106.466 151.86 89C151.86 71.534 148.775 56.3747 142.426 43.6686C136.253 31.0202 127.537 21.2487 116.261 14.5121C105.153 7.7871 92.3958 4.47998 78.12 4.47998C63.8387 4.47998 51.015 7.78946 39.769 14.5058L39.7584 14.5121L39.7479 14.5185C28.6222 21.2566 19.9168 31.0221 13.6023 43.6511L13.5935 43.6687L13.5849 43.6863C7.38958 56.3867 4.38 71.5389 4.38 89C4.38 106.461 7.38958 121.613 13.5849 134.314L13.5935 134.331L13.6023 134.349C19.9168 146.978 28.6222 156.743 39.7479 163.481ZM89.4502 111.234L89.4372 111.28L89.4254 111.326C88.0371 116.741 86.2478 119.861 84.4826 121.43C82.537 123.16 80.4644 123.94 78.12 123.94C75.7757 123.94 73.703 123.16 71.7575 121.43C69.9629 119.835 68.1125 116.684 66.5829 111.28C65.2437 106.031 64.52 98.6533 64.52 89C64.52 79.1811 65.2469 71.8158 66.5794 66.7317C68.1097 61.3206 69.9615 58.166 71.7575 56.5696C73.703 54.8403 75.7757 54.06 78.12 54.06C80.4644 54.06 82.537 54.8403 84.4826 56.5696C86.2478 58.1388 88.0371 61.2594 89.4254 66.6735L89.4406 66.7331L89.4578 66.7922C90.9177 71.8358 91.72 79.1744 91.72 89C91.72 98.6654 90.9202 106.022 89.4502 111.234ZM167.536 166V170H171.536H294.956H298.956V166V125.74V121.74H294.956H253.383L267.715 108.69C267.717 108.688 267.72 108.686 267.722 108.683C275.319 101.831 281.2 95.5209 285.249 89.7598L285.263 89.7393L285.277 89.7187C289.272 83.8797 292.016 78.1662 293.337 72.5905C294.733 67.2989 295.436 61.9861 295.436 56.66C295.436 46.0727 292.575 36.7151 286.739 28.7717C280.974 20.9245 273.026 14.9343 263.071 10.7345C253.106 6.53063 241.781 4.47998 229.176 4.47998C212.082 4.47998 197.471 7.88402 185.558 14.9381C173.831 21.8813 164.926 30.9844 158.978 42.2529L157.07 45.8691L160.727 47.6977L199.887 67.2777L203.465 69.0665L205.253 65.4888C207.287 61.4216 209.993 58.5255 213.34 56.613L213.386 56.5867L213.432 56.5591C216.95 54.4233 220.563 53.4 224.336 53.4C228.82 53.4 231.437 54.4001 232.909 55.6993L232.96 55.7444L233.013 55.7877C234.413 56.9408 235.296 58.642 235.296 61.5C235.296 62.8089 235.079 64.3281 234.581 66.0801C234.161 67.4249 233.244 69.2231 231.628 71.5132L231.581 71.5792L231.537 71.647C230.169 73.7624 227.859 76.442 224.453 79.7078L168.82 131.163L167.536 132.351V134.1V166Z" stroke="#D2D2D2" stroke-width="8"/>
</svg>
