<svg width="303" height="178" viewBox="0 0 303 178" fill="none" xmlns="http://www.w3.org/2000/svg">
<path d="M39.3679 163.001L39.3784 163.008L39.389 163.014C50.635 169.731 63.4587 173.04 77.74 173.04C92.0154 173.04 104.772 169.733 115.881 163.008C127.156 156.272 135.873 146.5 142.046 133.852C148.395 121.145 151.48 105.986 151.48 88.52C151.48 71.0541 148.395 55.8948 142.047 43.1888C135.873 30.5403 127.157 20.7688 115.881 14.0321C104.773 7.30712 92.0157 4 77.74 4C63.4587 4 50.635 7.30947 39.389 14.0258L39.3784 14.0322L39.3679 14.0386C28.2422 20.7766 19.5368 30.5421 13.2223 43.1711L13.2135 43.1887L13.2049 43.2063C7.00958 55.9068 4 71.0589 4 88.52C4 105.981 7.00958 121.133 13.2049 133.834L13.2135 133.851L13.2223 133.869C19.5368 146.498 28.2422 156.263 39.3679 163.001ZM89.0702 110.754L89.0572 110.8L89.0453 110.847C87.6571 116.261 85.8678 119.381 84.1025 120.95C82.157 122.68 80.0844 123.46 77.74 123.46C75.3957 123.46 73.323 122.68 71.3775 120.95C69.5829 119.355 67.7325 116.204 66.2029 110.8C64.8637 105.551 64.14 98.1733 64.14 88.52C64.14 78.7011 64.8669 71.3358 66.1994 66.2518C67.7297 60.8406 69.5815 57.686 71.3775 56.0896C73.323 54.3603 75.3957 53.58 77.74 53.58C80.0844 53.58 82.157 54.3603 84.1025 56.0896C85.8678 57.6588 87.6571 60.7795 89.0453 66.1935L89.0606 66.2531L89.0778 66.3122C90.5377 71.3558 91.34 78.6944 91.34 88.52C91.34 98.1854 90.5402 105.542 89.0702 110.754ZM160.042 153.509L158.491 156.882L161.739 158.68C170.35 163.446 180.263 167.015 191.43 169.43C202.547 171.833 213.537 173.04 224.396 173.04C241.189 173.04 255.208 170.424 266.215 164.922C277.141 159.534 285.414 152.472 290.732 143.621C296.069 134.98 298.796 125.833 298.796 116.24C298.796 101.463 293.249 89.1942 282.215 79.7599C277.496 75.7246 271.928 72.6026 265.56 70.3459L289.287 46.2251L290.436 45.0576V43.42V11.52V7.51999H286.436H171.596H167.596V11.52V50.68V54.68H171.596H217.113L201.084 70.9749L199.936 72.1424V73.78V105.68V109.68H203.936H224.396C230.834 109.68 234.48 110.653 236.217 111.841L236.278 111.883L236.34 111.922C237.933 112.928 238.656 114.2 238.656 116.24C238.656 117.549 238.35 118.531 237.848 119.323C237.337 120.129 236.482 120.957 235.065 121.724C232.158 123.229 228.097 124.12 222.636 124.12C216.558 124.12 209.996 123.293 202.936 121.602C196.116 119.788 189.565 117.069 183.277 113.437L179.475 111.24L177.641 115.229L160.042 153.509Z" stroke="#D2D2D2" stroke-width="8"/>
</svg>


