<svg width="298" height="30" viewBox="0 0 298 30" fill="none" xmlns="http://www.w3.org/2000/svg">
<mask id="mask0_21_88" style="mask-type:alpha" maskUnits="userSpaceOnUse" x="0" y="0" width="42" height="30">
<path d="M17.3971 0.0256985C18.3011 0.0436112 19.2073 -0.0522745 20.1092 0.0425575C20.1907 1.03724 20.4934 1.9961 20.6681 2.97603C19.9694 2.83589 19.257 2.87804 18.551 2.87066C18.4451 2.63885 18.3477 2.40809 18.2408 2.18049C17.9603 1.45977 17.612 0.765388 17.394 0.0214837L17.3971 0.0256985ZM21.2196 0.315463C22.854 0.202718 24.9616 1.05831 26.4615 1.68526C27.7455 2.32906 29.0571 2.995 30.4925 3.22154C31.5102 3.38001 32.5444 3.40516 33.5686 3.29635C33.6311 3.29108 33.6036 3.28054 33.6258 3.368C33.9921 4.81577 34.3371 6.28145 34.6843 7.73554C35.0555 9.28095 35.4239 10.8264 35.7895 12.3718C35.4719 12.5404 35.1236 12.6131 34.8008 12.7606C34.6399 12.8386 34.4832 12.9186 34.3192 12.9945C33.0637 13.6741 32.1449 14.8269 31.3383 15.9733C32.671 15.9733 34.0026 15.9596 35.3354 15.9807C43.6238 16.5918 42.2382 30 36.3939 30L5.32966 29.9874C-0.267962 30.0011 -3.07418 16.0692 8.39205 15.9733C7.48804 13.7511 7.36525 11.2507 7.95169 8.93359C7.9771 8.57639 8.26079 8.85667 8.44815 8.92305C8.69479 9.08637 8.94461 9.23916 9.20396 9.38562C9.53722 9.55747 9.86155 9.74597 10.1757 9.9504C9.72159 11.5004 9.86873 13.1673 10.3726 14.692C10.5409 15.1261 10.6796 15.5739 10.9019 15.9838C16.5884 15.9775 22.2742 15.9775 27.9594 15.9838C28.9534 14.5761 29.8891 13.103 31.152 11.9134C30.7836 12.0399 30.4036 12.1242 30.031 12.2422C29.9251 11.9092 29.8436 11.5699 29.7293 11.2412C29.4636 11.6447 29.2265 12.0567 28.712 12.1695C28.3786 12.2422 28.0176 11.9935 27.8451 12.0873C27.7477 12.1568 27.6704 12.258 27.5508 12.3412C27.2989 12.5242 26.9766 12.582 26.6764 12.4982C26.3588 12.416 26.3345 12.4245 26.0794 12.6363C26.0253 12.6818 25.968 12.7233 25.9079 12.7606C25.6348 12.9406 25.2869 12.965 24.9912 12.8249C24.5413 12.6141 24.2047 12.2675 23.8734 11.9103C22.8677 12.2369 21.8166 12.415 20.7898 12.6658C20.4473 12.5859 20.1206 12.4495 19.8233 12.2622C19.5238 11.7817 19.4719 11.1748 19.5587 10.6216L19.9186 10.2791C21.0163 9.94724 22.0558 9.71648 23.1768 9.48783C23.3748 9.44779 23.3377 9.47097 23.4023 9.68276C23.4563 9.84503 23.5082 10.0062 23.5494 10.1717C23.6352 10.3213 23.7231 10.472 23.8109 10.6205C23.8501 9.97569 23.7051 9.72596 23.5516 9.13801C23.4457 8.7239 23.6003 8.61116 23.8406 8.29505C23.9909 8.10223 24.1444 7.92205 24.3815 7.83775C25.0166 7.74292 25.4474 8.6649 25.6295 9.14116C25.7354 9.41934 25.8275 9.70173 25.9471 9.97779C26.0275 9.19596 25.8359 8.69651 25.5353 7.9958C25.4167 7.71974 25.4654 7.68707 25.747 7.57433C26.3186 7.35727 26.6997 7.38467 27.0607 7.9094C27.1408 8.0154 27.2136 8.12664 27.2787 8.24237C27.3486 8.45311 27.4036 8.65858 27.4809 8.87458C27.5582 9.09059 27.6471 9.30976 27.7434 9.52471C27.8038 8.84613 27.7244 8.44994 27.4407 7.8388C27.3545 7.67765 27.2914 7.50528 27.2533 7.32671C27.247 7.27508 27.2533 7.28562 27.301 7.23715C27.7964 6.83675 28.5511 7.20343 28.8306 7.6934C28.9735 7.94417 29.0761 8.35722 29.1735 8.64172L29.3133 9.04949H29.4255C29.4593 8.10117 29.0529 7.34041 28.6559 6.51221C29.038 6.41527 29.4223 6.32571 29.8129 6.2667L29.5705 6.05807C29.1823 6.03111 28.7992 5.95498 28.4304 5.83153C28.0271 5.65556 27.6037 5.52596 27.2142 5.31943C25.4802 4.47648 23.813 3.34587 21.8473 3.12881C21.6282 2.19314 21.4419 1.25009 21.2206 0.314409L21.2196 0.315463ZM8.50531 28.0106L34.9426 28.0275C39.8501 27.9959 38.8995 18.2282 34.5563 18.2356C25.7223 18.2313 16.8894 18.2313 8.05755 18.2356C2.25563 18.3725 2.1593 28.0138 8.50426 28.0127L8.50531 28.0106ZM13.7811 1.3839C14.5363 0.961599 15.3453 0.642616 16.1862 0.435584C16.3347 0.708865 16.4676 0.990299 16.5842 1.27854C16.7101 1.57357 16.8224 1.87387 16.9526 2.16996C17.069 2.43549 17.178 2.70523 17.2871 2.97497C16.6027 3.13737 15.9369 3.36934 15.3002 3.66725C14.7709 2.92124 14.2829 2.14888 13.7811 1.38496V1.3839ZM10.4996 4.00443C11.1666 3.27524 11.9121 2.62119 12.7226 2.05405C13.2116 2.79163 13.7536 3.49866 14.1569 4.28471C13.5874 4.72305 12.9999 5.14979 12.5119 5.6819C11.8122 5.15506 11.157 4.57974 10.5007 4.00443H10.4996ZM37.607 5.26886C38.0675 7.13599 38.6052 8.98311 39.0265 10.8608C39.1324 11.3307 39.126 11.7965 38.5608 11.9145C37.8812 12.0335 37.6949 10.8028 37.589 10.3466L37.5805 10.3129C37.1105 8.40674 36.6278 6.50483 36.1642 4.5966C36.0467 4.21095 35.6826 3.03504 35.9821 2.71998C36.1938 2.50187 36.6173 2.50924 36.8364 2.71998C37.0375 2.90965 37.1201 3.32058 37.1931 3.58717C37.3456 4.14352 37.4705 4.70724 37.6081 5.26675L37.607 5.26886ZM37.4038 10.9282C37.4821 11.316 37.6928 12.0314 37.2185 12.2464C36.9676 12.3602 36.6596 12.3328 36.486 12.101C36.3124 11.8692 36.2415 11.5183 36.1684 11.2507L36.0626 10.8755C35.5502 8.99892 35.1491 7.09385 34.6505 5.21301C34.552 4.88742 34.1445 3.54713 34.281 3.2974C34.4388 3.0108 35.1014 2.81376 35.3205 3.1678C35.5397 3.52184 35.6688 4.16775 35.7725 4.58501C36.3018 6.70187 36.8554 8.81241 37.3953 10.9272L37.4038 10.9282ZM39.1239 4.64613C39.5473 6.20348 39.8903 7.77032 40.3412 9.3224C40.4767 9.78813 40.6948 10.4709 40.0777 10.6922C39.6765 10.8366 39.397 10.6037 39.2488 10.2454C39.1006 9.88718 39.0159 9.38141 38.926 8.99997C38.7072 8.08045 38.4775 7.16409 38.2368 6.2509C38.0537 5.40794 37.7584 4.56499 37.6176 3.72204C37.5308 3.1952 37.7806 2.8675 38.3289 2.98446C38.7068 3.06454 38.8116 3.37327 38.908 3.70307C38.9969 4.01286 39.0371 4.33529 39.1197 4.65139L39.1239 4.64613ZM39.3621 3.56715C41.5607 3.41752 43.2142 8.32034 40.8324 9.59004C40.3645 7.57749 39.8448 5.57759 39.3621 3.56715ZM8.55824 7.14442C8.93191 6.36469 9.30663 5.58286 9.8465 4.90112C10.4869 5.44904 11.1517 5.97588 11.7561 6.57543C11.3798 7.02279 11.0664 7.51907 10.8246 8.0506C10.7124 8.29505 10.5984 8.54091 10.4827 8.78818C9.99046 8.51527 9.52999 8.18863 9.01659 7.9526C8.7943 7.81668 8.57624 7.67232 8.36664 7.51743C8.43016 7.3952 8.49049 7.27192 8.55189 7.14758L8.55824 7.14442Z" fill="black"/>
<path d="M9.27796 21.1489C10.1976 21.1493 10.9888 21.7962 11.1679 22.6941C11.347 23.5919 10.864 24.4907 10.0143 24.8407C9.16455 25.1907 8.18478 24.8945 7.67411 24.1332C7.16344 23.372 7.26411 22.3576 7.91454 21.7106C8.27587 21.3503 8.76653 21.1482 9.27796 21.1489ZM11.4311 20.2786L12.0799 20.9245C12.1888 21.0331 12.1888 21.2089 12.0799 21.3175L11.6777 21.7179L11.6544 21.738C11.7623 21.9258 11.8475 22.1256 11.9085 22.3333H12.5023C12.5761 22.3333 12.647 22.3625 12.6992 22.4144C12.7514 22.4664 12.7807 22.5369 12.7807 22.6104V23.524C12.7807 23.6776 12.6556 23.8021 12.5012 23.8021H11.9307C11.8746 24.0192 11.7922 24.2287 11.6851 24.4259L12.0789 24.8179C12.1878 24.9265 12.1878 25.1023 12.0789 25.2109L11.43 25.8568C11.3209 25.9652 11.1442 25.9652 11.0352 25.8568L10.6657 25.4891C10.4622 25.6109 10.2437 25.7062 10.0158 25.7725V26.3205C10.0158 26.4741 9.89065 26.5986 9.73631 26.5986H8.82278C8.74894 26.5986 8.67811 26.5695 8.62589 26.5175C8.57368 26.4655 8.54436 26.395 8.54438 26.3215V25.7947C8.30586 25.7336 8.0766 25.6411 7.86267 25.5196L7.4816 25.899C7.3725 26.0074 7.19585 26.0074 7.08676 25.899L6.43786 25.2531C6.32898 25.1445 6.32898 24.9686 6.43786 24.86L6.81894 24.4807C6.69693 24.2678 6.60402 24.0396 6.54266 23.8021H6.01338C5.93954 23.8022 5.86872 23.773 5.81649 23.721C5.76429 23.669 5.73497 23.5985 5.73499 23.525V22.6115C5.73499 22.4578 5.8601 22.3333 6.01444 22.3333H6.56489C6.63156 22.1064 6.72726 21.8889 6.84964 21.6863L6.48021 21.3186C6.37132 21.21 6.37132 21.0342 6.48021 20.9256L7.1291 20.2797C7.23819 20.1713 7.41485 20.1713 7.52394 20.2797L7.91772 20.6716C8.11584 20.5651 8.32628 20.483 8.54438 20.4272V19.8592C8.54438 19.7056 8.6695 19.5811 8.82384 19.5811H9.7416C9.81545 19.581 9.88627 19.6102 9.93849 19.6622C9.9907 19.7142 10.02 19.7847 10.02 19.8582V20.424C10.02 20.4324 10.02 20.4409 10.02 20.4493C10.2286 20.5099 10.4294 20.5948 10.6181 20.7022L10.6382 20.679L11.0404 20.2786C11.1495 20.1702 11.3262 20.1702 11.4353 20.2786H11.4311ZM11.8227 21.1215L11.2342 20.5357L10.8922 20.876L10.9208 20.9045C11.1202 21.0557 11.2982 21.2329 11.4501 21.4313L11.4787 21.4598L11.8206 21.1194L11.8227 21.1215ZM12.4578 23.4829V22.6536H11.9804C12.0259 22.9279 12.0302 23.2074 11.9931 23.4829H12.4578ZM11.231 25.6008L11.8195 25.0149L11.5094 24.7062C11.3485 24.9332 11.1544 25.1349 10.9335 25.3047L11.2299 25.5997L11.231 25.6008ZM8.85877 26.2783H9.69185V25.8452C9.41632 25.8905 9.13556 25.8947 8.85877 25.8579V26.2794V26.2783ZM6.68768 25.0571L7.27624 25.6429L7.57898 25.3416C7.35455 25.1766 7.15617 24.9791 6.99043 24.7557L6.68768 25.0571ZM6.05255 22.6536V23.4829H6.47597C6.43885 23.2074 6.44314 22.9279 6.48867 22.6536H6.05255ZM7.32281 20.5357L6.73426 21.1215L7.03065 21.4166C7.2012 21.1967 7.40386 21.0035 7.63191 20.8434L7.32175 20.5346L7.32281 20.5357ZM9.69503 19.9035H8.86195V20.3661C9.13873 20.3291 9.41951 20.3333 9.69503 20.3787V19.9035ZM10.9018 21.4556C10.1071 20.6649 8.86208 20.543 7.92794 21.1645C6.9938 21.7859 6.63071 22.9776 7.0607 24.0109C7.49068 25.0442 8.594 25.6312 9.69599 25.4131C10.798 25.195 11.5918 24.2325 11.592 23.1141C11.5928 22.4918 11.3444 21.895 10.9018 21.4556ZM10.3386 22.0161C9.83277 21.5129 9.04017 21.4354 8.44569 21.8312C7.8512 22.227 7.62045 22.9858 7.89459 23.6433C8.16873 24.3009 8.87138 24.674 9.57273 24.5345C10.2741 24.395 10.7787 23.7817 10.7779 23.0698C10.7781 22.6744 10.62 22.2952 10.3386 22.0161Z" fill="black"/>
<path d="M17.0009 21.1489C17.9205 21.1493 18.7118 21.7962 18.8909 22.6941C19.07 23.5919 18.587 24.4907 17.7373 24.8407C16.8875 25.1907 15.9078 24.8945 15.3971 24.1332C14.8864 23.372 14.9871 22.3576 15.6375 21.7106C15.9989 21.3503 16.4895 21.1482 17.0009 21.1489ZM19.154 20.2786L19.8029 20.9245C19.9118 21.0331 19.9118 21.2089 19.8029 21.3175L19.4007 21.7179L19.3774 21.738C19.4853 21.9258 19.5705 22.1256 19.6314 22.3333H20.2253C20.2991 22.3333 20.37 22.3625 20.4222 22.4144C20.4744 22.4664 20.5037 22.5369 20.5037 22.6104V23.524C20.5037 23.6776 20.3786 23.8021 20.2242 23.8021H19.6537C19.5976 24.0192 19.5151 24.2287 19.4081 24.4259L19.8019 24.8179C19.9108 24.9265 19.9108 25.1023 19.8019 25.2109L19.153 25.8568C19.0439 25.9652 18.8672 25.9652 18.7581 25.8568L18.3887 25.4891C18.1851 25.6109 17.9667 25.7062 17.7388 25.7725V26.3205C17.7388 26.4741 17.6136 26.5986 17.4593 26.5986H16.5415C16.4677 26.5986 16.3969 26.5695 16.3446 26.5175C16.2924 26.4655 16.2631 26.395 16.2631 26.3215V25.7947C16.0246 25.7336 15.7954 25.6411 15.5814 25.5196L15.2003 25.899C15.0913 26.0074 14.9146 26.0074 14.8055 25.899L14.1566 25.2531C14.0477 25.1445 14.0477 24.9686 14.1566 24.86L14.5377 24.4807C14.4157 24.2678 14.3228 24.0395 14.2614 23.8021H13.7321C13.6583 23.8022 13.5875 23.773 13.5352 23.721C13.483 23.669 13.4537 23.5985 13.4537 23.525V22.6115C13.4537 22.4578 13.5789 22.3333 13.7332 22.3333H14.2836C14.3503 22.1064 14.446 21.8889 14.5684 21.6863L14.199 21.3186C14.0901 21.21 14.0901 21.0342 14.199 20.9256L14.8478 20.2797C14.9569 20.1713 15.1336 20.1713 15.2427 20.2797L15.6365 20.6716C15.8346 20.5651 16.045 20.483 16.2631 20.4272V19.8592C16.2631 19.7056 16.3882 19.5811 16.5426 19.5811H17.4604C17.5342 19.581 17.605 19.6102 17.6572 19.6622C17.7094 19.7142 17.7388 19.7847 17.7388 19.8582V20.424C17.7388 20.4324 17.7388 20.4409 17.7388 20.4493C17.9474 20.5099 18.1481 20.5948 18.3368 20.7022L18.3569 20.679L18.7592 20.2786C18.8683 20.1702 19.0449 20.1702 19.154 20.2786ZM19.5457 21.1215L18.9571 20.5357L18.6152 20.876L18.6438 20.9045C18.8432 21.0557 19.0212 21.2329 19.1731 21.4313L19.2017 21.4598L19.5436 21.1194L19.5457 21.1215ZM20.1808 23.4829V22.6536H19.7034C19.749 22.9279 19.7532 23.2074 19.7161 23.4829H20.1808ZM18.954 25.6008L19.5425 25.0149L19.2324 24.7062C19.0715 24.9332 18.8774 25.1349 18.6565 25.3047L18.9529 25.5997L18.954 25.6008ZM16.5818 26.2783H17.4138V25.8452C17.1386 25.8904 16.8582 25.8947 16.5818 25.8579V26.2794V26.2783ZM14.4107 25.0571L14.9992 25.6429L15.302 25.3416C15.0775 25.1766 14.8792 24.9791 14.7134 24.7557L14.4107 25.0571ZM13.7755 22.6536V23.4829H14.199C14.1618 23.2074 14.1661 22.9279 14.2117 22.6536H13.7755ZM15.0458 20.5357L14.4572 21.1215L14.7536 21.4166C14.9242 21.1967 15.1269 21.0035 15.3549 20.8434L15.0447 20.5346L15.0458 20.5357ZM17.418 19.9035H16.5849V20.3661C16.8617 20.3291 17.1425 20.3334 17.418 20.3787V19.9035ZM18.6248 21.4556C17.8301 20.6649 16.5851 20.543 15.6509 21.1645C14.7168 21.7859 14.3537 22.9776 14.7837 24.0109C15.2137 25.0442 16.317 25.6312 17.419 25.4131C18.521 25.195 19.3147 24.2325 19.3149 23.1141C19.3157 22.4918 19.0674 21.895 18.6248 21.4556ZM18.0616 22.0161C17.5557 21.5129 16.7632 21.4354 16.1687 21.8312C15.5742 22.227 15.3434 22.9858 15.6176 23.6433C15.8917 24.3009 16.5944 24.674 17.2957 24.5345C17.9971 24.395 18.5017 23.7817 18.5009 23.0698C18.5011 22.6744 18.343 22.2952 18.0616 22.0161Z" fill="black"/>
<path d="M24.9192 21.0326C25.8388 21.0329 26.6301 21.6798 26.8092 22.5777C26.9883 23.4756 26.5053 24.3743 25.6556 24.7243C24.8058 25.0743 23.8261 24.7781 23.3154 24.0169C22.8047 23.2556 22.9054 22.2413 23.5558 21.5942C23.9171 21.2339 24.4078 21.0318 24.9192 21.0326ZM27.0723 20.1622L27.7212 20.8081C27.8301 20.9167 27.8301 21.0926 27.7212 21.2012L27.319 21.6016L27.2957 21.6216C27.4036 21.8094 27.4888 22.0092 27.5497 22.2169H28.1436C28.2174 22.2169 28.2883 22.2461 28.3405 22.2981C28.3927 22.35 28.422 22.4205 28.422 22.494V23.4076C28.422 23.5612 28.2969 23.6858 28.1425 23.6858H27.572C27.5159 23.9029 27.4334 24.1123 27.3264 24.3096L27.7202 24.7015C27.8291 24.8101 27.8291 24.986 27.7202 25.0946L27.0713 25.7405C26.9622 25.8488 26.7855 25.8488 26.6764 25.7405L26.307 25.3727C26.1034 25.4945 25.885 25.5898 25.6571 25.6562V26.2062C25.6571 26.3598 25.5319 26.4844 25.3776 26.4844H24.4598C24.386 26.4844 24.3152 26.4552 24.2629 26.4032C24.2107 26.3513 24.1814 26.2808 24.1814 26.2072V25.6804C23.9429 25.6193 23.7137 25.5269 23.4997 25.4054L23.1144 25.7847C23.0053 25.8931 22.8287 25.8931 22.7196 25.7847L22.0707 25.1388C21.9618 25.0302 21.9618 24.8544 22.0707 24.7458L22.4518 24.3665C22.3297 24.1535 22.2368 23.9253 22.1755 23.6879H21.6462C21.5724 23.6879 21.5015 23.6587 21.4493 23.6067C21.3971 23.5548 21.3678 23.4843 21.3678 23.4108V22.4972C21.3678 22.3436 21.4929 22.219 21.6473 22.219H22.1977C22.2644 21.9921 22.3601 21.7747 22.4825 21.5721L22.113 21.2043C22.0041 21.0957 22.0041 20.9199 22.113 20.8113L22.7619 20.1654C22.871 20.057 23.0477 20.057 23.1568 20.1654L23.5505 20.5574C23.7486 20.4508 23.9591 20.3687 24.1772 20.3129V19.745C24.1772 19.5913 24.3023 19.4668 24.4567 19.4668H25.3744C25.4483 19.4668 25.5191 19.496 25.5713 19.5479C25.6235 19.5999 25.6528 19.6704 25.6528 19.7439V20.3055C25.6528 20.314 25.6528 20.3224 25.6528 20.3308C25.8615 20.3915 26.0622 20.4763 26.2509 20.5837L26.271 20.5605L26.6733 20.1601C26.7824 20.0517 26.959 20.0517 27.0681 20.1601L27.0723 20.1622ZM27.464 21.0052L26.8754 20.4193L26.5335 20.7597L26.5621 20.7881C26.7614 20.9393 26.9395 21.1165 27.0914 21.315L27.12 21.3434L27.4619 21.0031L27.464 21.0052ZM28.0991 23.3665V22.5372H27.6238C27.6693 22.8115 27.6736 23.091 27.6365 23.3665H28.0991ZM26.8723 25.4844L27.4608 24.8986L27.1507 24.5898C26.9898 24.8168 26.7957 25.0186 26.5748 25.1883L26.8712 25.4834L26.8723 25.4844ZM24.5001 26.1619H25.3374V25.7289C25.0622 25.774 24.7818 25.7783 24.5053 25.7415V26.163L24.5001 26.1619ZM22.3321 24.9418L22.9207 25.5276L23.2234 25.2263C22.999 25.0613 22.8006 24.8638 22.6349 24.6404L22.3321 24.9418ZM21.697 22.5383V23.3612H22.1204C22.0833 23.0857 22.0876 22.8062 22.1331 22.532L21.697 22.5383ZM22.9673 20.4204L22.3734 21.0052L22.6698 21.3002C22.8404 21.0804 23.043 20.8871 23.2711 20.727L22.9609 20.4183L22.9673 20.4204ZM25.3395 19.7882H24.5075V20.2507C24.7839 20.2139 25.0643 20.2181 25.3395 20.2634V19.7882ZM26.5462 21.3403C25.7516 20.5496 24.5065 20.4277 23.5724 21.0492C22.6383 21.6706 22.2752 22.8623 22.7052 23.8956C23.1351 24.9288 24.2385 25.5159 25.3404 25.2978C26.4424 25.0797 27.2362 24.1172 27.2364 22.9988C27.2372 22.3765 26.9888 21.7797 26.5462 21.3403ZM25.9831 21.9008C25.4772 21.3975 24.6846 21.3201 24.0901 21.7159C23.4957 22.1117 23.2649 22.8705 23.539 23.528C23.8132 24.1856 24.5158 24.5587 25.2172 24.4192C25.9185 24.2797 26.4232 23.6664 26.4224 22.9545C26.4225 22.5591 26.2645 22.1799 25.9831 21.9008Z" fill="black"/>
<path d="M32.746 21.0331C33.6656 21.0335 34.4569 21.6804 34.6359 22.5782C34.815 23.4761 34.332 24.3748 33.4823 24.7248C32.6326 25.0749 31.6528 24.7787 31.1421 24.0174C30.6315 23.2561 30.7321 22.2418 31.3826 21.5947C31.7439 21.2344 32.2345 21.0323 32.746 21.0331ZM34.8991 20.1628L35.548 20.8087C35.6568 20.9173 35.6568 21.0931 35.548 21.2017L35.1457 21.6021L35.1224 21.6221C35.2303 21.81 35.3156 22.0098 35.3765 22.2175H35.9703C36.0442 22.2174 36.115 22.2466 36.1672 22.2986C36.2194 22.3506 36.2487 22.4211 36.2487 22.4946V23.4081C36.2487 23.5618 36.1236 23.6863 35.9693 23.6863H35.3987C35.3427 23.9034 35.2602 24.1129 35.1531 24.3101L35.5469 24.7021C35.6558 24.8107 35.6558 24.9865 35.5469 25.0951L34.898 25.741C34.7889 25.8494 34.6123 25.8494 34.5032 25.741L34.1337 25.3733C33.9302 25.4951 33.7117 25.5903 33.4838 25.6567V26.2067C33.4838 26.3604 33.3587 26.4849 33.2043 26.4849H32.2866C32.2127 26.4849 32.1419 26.4557 32.0897 26.4038C32.036 26.3521 32.0055 26.2811 32.005 26.2067V25.6799C31.7665 25.6188 31.5372 25.5263 31.3233 25.4049L30.9464 25.7853C30.8373 25.8936 30.6607 25.8936 30.5516 25.7853L29.9027 25.1393C29.7938 25.0308 29.7938 24.8549 29.9027 24.7463L30.2838 24.367C30.1618 24.154 30.0689 23.9258 30.0075 23.6884H29.4782C29.4044 23.6884 29.3336 23.6592 29.2813 23.6073C29.2291 23.5553 29.1998 23.4848 29.1998 23.4113V22.4977C29.1998 22.3441 29.3249 22.2196 29.4793 22.2196H30.0297C30.0952 21.9921 30.1899 21.7739 30.3113 21.5705L29.9419 21.2028C29.833 21.0942 29.833 20.9183 29.9419 20.8097L30.5908 20.1638C30.6999 20.0554 30.8765 20.0554 30.9856 20.1638L31.3794 20.5558C31.5769 20.4475 31.787 20.3636 32.005 20.3061V19.7381C32.005 19.5845 32.1301 19.46 32.2844 19.46H33.2022C33.2761 19.4599 33.3469 19.4891 33.3991 19.5411C33.4513 19.5931 33.4806 19.6636 33.4806 19.7371V20.3061C33.4806 20.3145 33.4806 20.3229 33.4806 20.3314C33.6893 20.392 33.89 20.4769 34.0787 20.5842L34.0988 20.5611L34.5011 20.1607C34.6101 20.0523 34.7868 20.0523 34.8959 20.1607L34.8991 20.1628ZM35.2907 21.0057L34.7022 20.4199L34.3603 20.7602L34.3888 20.7887C34.5882 20.9399 34.7662 21.1171 34.9181 21.3155L34.9467 21.344L35.2886 21.0036L35.2907 21.0057ZM35.9259 23.367V22.5378H35.4485C35.494 22.8121 35.4982 23.0915 35.4612 23.367H35.9259ZM34.699 25.485L35.2876 24.8991L34.9774 24.5904C34.8165 24.8173 34.6224 25.0191 34.4016 25.1889L34.6979 25.4839L34.699 25.485ZM32.3268 26.1625H33.1599V25.7294C32.8843 25.7747 32.6036 25.7789 32.3268 25.7421V26.1635V26.1625ZM30.1589 24.9423L30.7474 25.5282L31.0502 25.2268C30.8257 25.0618 30.6274 24.8644 30.4616 24.641L30.1589 24.9423ZM29.5237 22.5388V23.3618H29.9472C29.91 23.0863 29.9143 22.8068 29.9599 22.5325L29.5237 22.5388ZM30.794 20.4209L30.2055 21.0057L30.5018 21.3008C30.6724 21.0809 30.8751 20.8877 31.1031 20.7275L30.7929 20.4188L30.794 20.4209ZM33.1662 19.7887H32.3331V20.2513C32.6099 20.2143 32.8907 20.2186 33.1662 20.2639V19.7887ZM34.373 21.3408C33.5783 20.5501 32.3333 20.4283 31.3991 21.0497C30.465 21.6712 30.1019 22.8629 30.5319 23.8961C30.9619 24.9294 32.0652 25.5165 33.1672 25.2984C34.2692 25.0802 35.063 24.1177 35.0631 22.9993C35.064 22.3771 34.8156 21.7802 34.373 21.3408ZM33.8045 21.8971C33.2987 21.3939 32.5061 21.3165 31.9116 21.7123C31.3171 22.1081 31.0864 22.8668 31.3605 23.5243C31.6346 24.1819 32.3373 24.555 33.0386 24.4155C33.74 24.276 34.2446 23.6628 34.2438 22.9508C34.244 22.5554 34.0859 22.1763 33.8045 21.8971Z" fill="black"/>
</mask>
<g mask="url(#mask0_21_88)">
<rect x="-3.26306" y="-2.0498" width="49.9409" height="33.359" fill="#1B1B1B"/>
</g>
<path d="M64.784 21.096C63.9413 21.096 63.1627 20.9573 62.448 20.68C61.7333 20.392 61.1147 19.992 60.592 19.48C60.0693 18.968 59.6587 18.3653 59.36 17.672C59.072 16.9787 58.928 16.2213 58.928 15.4C58.928 14.5787 59.072 13.8213 59.36 13.128C59.6587 12.4347 60.0693 11.832 60.592 11.32C61.1253 10.808 61.7493 10.4133 62.464 10.136C63.1787 9.848 63.9573 9.704 64.8 9.704C65.6107 9.704 66.3733 9.84267 67.088 10.12C67.8027 10.3867 68.4053 10.792 68.896 11.336L68.144 12.088C67.6853 11.6187 67.1787 11.2827 66.624 11.08C66.0693 10.8667 65.472 10.76 64.832 10.76C64.16 10.76 63.536 10.8773 62.96 11.112C62.384 11.336 61.8827 11.6613 61.456 12.088C61.0293 12.504 60.6933 12.9947 60.448 13.56C60.2133 14.1147 60.096 14.728 60.096 15.4C60.096 16.072 60.2133 16.6907 60.448 17.256C60.6933 17.8107 61.0293 18.3013 61.456 18.728C61.8827 19.144 62.384 19.4693 62.96 19.704C63.536 19.928 64.16 20.04 64.832 20.04C65.472 20.04 66.0693 19.9333 66.624 19.72C67.1787 19.5067 67.6853 19.1653 68.144 18.696L68.896 19.448C68.4053 19.992 67.8027 20.4027 67.088 20.68C66.3733 20.9573 65.6053 21.096 64.784 21.096ZM76.4229 20.456V13.592H72.3749L72.2789 15.464C72.2575 16.0293 72.2202 16.584 72.1669 17.128C72.1242 17.672 72.0442 18.1733 71.9269 18.632C71.8202 19.08 71.6655 19.448 71.4629 19.736C71.2602 20.0133 70.9989 20.1733 70.6789 20.216L69.5429 20.008C69.8735 20.0187 70.1455 19.9013 70.3589 19.656C70.5722 19.4 70.7375 19.0533 70.8549 18.616C70.9722 18.1787 71.0575 17.6827 71.1109 17.128C71.1642 16.5627 71.2069 15.9867 71.2389 15.4L71.3509 12.6H77.5589V20.456H76.4229ZM69.1909 23.032V20.008H78.8709V23.032H77.7989V21H70.2629V23.032H69.1909ZM84.6848 21.08C83.8101 21.08 83.0421 20.8987 82.3808 20.536C81.7194 20.1627 81.2021 19.656 80.8288 19.016C80.4554 18.3653 80.2688 17.624 80.2688 16.792C80.2688 15.96 80.4448 15.224 80.7968 14.584C81.1594 13.944 81.6501 13.4427 82.2688 13.08C82.8981 12.7067 83.6021 12.52 84.3808 12.52C85.1701 12.52 85.8688 12.7013 86.4768 13.064C87.0954 13.416 87.5808 13.9173 87.9328 14.568C88.2848 15.208 88.4608 15.9493 88.4608 16.792C88.4608 16.8453 88.4554 16.904 88.4448 16.968C88.4448 17.0213 88.4448 17.08 88.4448 17.144H81.1328V16.296H87.8368L87.3888 16.632C87.3888 16.024 87.2554 15.4853 86.9888 15.016C86.7328 14.536 86.3808 14.1627 85.9328 13.896C85.4848 13.6293 84.9674 13.496 84.3808 13.496C83.8048 13.496 83.2874 13.6293 82.8288 13.896C82.3701 14.1627 82.0128 14.536 81.7568 15.016C81.5008 15.496 81.3728 16.0453 81.3728 16.664V16.84C81.3728 17.48 81.5114 18.0453 81.7888 18.536C82.0768 19.016 82.4714 19.3947 82.9728 19.672C83.4848 19.9387 84.0661 20.072 84.7168 20.072C85.2288 20.072 85.7034 19.9813 86.1408 19.8C86.5888 19.6187 86.9728 19.3413 87.2928 18.968L87.9328 19.704C87.5594 20.152 87.0901 20.4933 86.5248 20.728C85.9701 20.9627 85.3568 21.08 84.6848 21.08ZM89.2675 20.984L89.3475 20.008C89.4222 20.0187 89.4915 20.0347 89.5555 20.056C89.6302 20.0667 89.6942 20.072 89.7475 20.072C90.0888 20.072 90.3608 19.944 90.5635 19.688C90.7768 19.432 90.9368 19.0907 91.0435 18.664C91.1502 18.2373 91.2248 17.7573 91.2675 17.224C91.3102 16.68 91.3475 16.136 91.3795 15.592L91.5235 12.6H97.6835V21H96.5475V13.256L96.8355 13.592H92.2595L92.5315 13.24L92.4035 15.672C92.3715 16.3973 92.3128 17.0907 92.2275 17.752C92.1528 18.4133 92.0302 18.9947 91.8595 19.496C91.6995 19.9973 91.4755 20.392 91.1875 20.68C90.8995 20.9573 90.5315 21.096 90.0835 21.096C89.9555 21.096 89.8222 21.0853 89.6835 21.064C89.5555 21.0427 89.4168 21.016 89.2675 20.984ZM106.129 21V19.144L106.081 18.84V15.736C106.081 15.0213 105.878 14.472 105.473 14.088C105.078 13.704 104.486 13.512 103.697 13.512C103.153 13.512 102.636 13.6027 102.145 13.784C101.654 13.9653 101.238 14.2053 100.897 14.504L100.385 13.656C100.812 13.2933 101.324 13.016 101.921 12.824C102.518 12.6213 103.148 12.52 103.809 12.52C104.897 12.52 105.734 12.792 106.321 13.336C106.918 13.8693 107.217 14.6853 107.217 15.784V21H106.129ZM103.233 21.08C102.604 21.08 102.054 20.9787 101.585 20.776C101.126 20.5627 100.774 20.2747 100.529 19.912C100.284 19.5387 100.161 19.112 100.161 18.632C100.161 18.1947 100.262 17.8 100.465 17.448C100.678 17.0853 101.02 16.7973 101.489 16.584C101.969 16.36 102.609 16.248 103.409 16.248H106.305V17.096H103.441C102.63 17.096 102.065 17.24 101.745 17.528C101.436 17.816 101.281 18.1733 101.281 18.6C101.281 19.08 101.468 19.464 101.841 19.752C102.214 20.04 102.737 20.184 103.409 20.184C104.049 20.184 104.598 20.04 105.057 19.752C105.526 19.4533 105.868 19.0267 106.081 18.472L106.337 19.256C106.124 19.8107 105.75 20.2533 105.217 20.584C104.694 20.9147 104.033 21.08 103.233 21.08ZM110.241 21V12.6H111.377V16.312H116.673V12.6H117.809V21H116.673V17.288H111.377V21H110.241ZM124.494 21.08C123.683 21.08 122.953 20.8987 122.302 20.536C121.662 20.1627 121.155 19.656 120.782 19.016C120.409 18.3653 120.222 17.624 120.222 16.792C120.222 15.9493 120.409 15.208 120.782 14.568C121.155 13.928 121.662 13.4267 122.302 13.064C122.942 12.7013 123.673 12.52 124.494 12.52C125.326 12.52 126.062 12.7013 126.702 13.064C127.353 13.4267 127.859 13.928 128.222 14.568C128.595 15.208 128.782 15.9493 128.782 16.792C128.782 17.624 128.595 18.3653 128.222 19.016C127.859 19.656 127.353 20.1627 126.702 20.536C126.051 20.8987 125.315 21.08 124.494 21.08ZM124.494 20.072C125.102 20.072 125.641 19.9387 126.11 19.672C126.579 19.3947 126.947 19.0107 127.214 18.52C127.491 18.0187 127.63 17.4427 127.63 16.792C127.63 16.1307 127.491 15.5547 127.214 15.064C126.947 14.5733 126.579 14.1947 126.11 13.928C125.641 13.6507 125.107 13.512 124.51 13.512C123.913 13.512 123.379 13.6507 122.91 13.928C122.441 14.1947 122.067 14.5733 121.79 15.064C121.513 15.5547 121.374 16.1307 121.374 16.792C121.374 17.4427 121.513 18.0187 121.79 18.52C122.067 19.0107 122.441 19.3947 122.91 19.672C123.379 19.9387 123.907 20.072 124.494 20.072ZM138.917 21.08C138.085 21.08 137.339 20.8987 136.677 20.536C136.027 20.1627 135.515 19.656 135.141 19.016C134.768 18.3653 134.581 17.624 134.581 16.792C134.581 15.9493 134.768 15.208 135.141 14.568C135.515 13.928 136.027 13.4267 136.677 13.064C137.339 12.7013 138.085 12.52 138.917 12.52C139.632 12.52 140.277 12.6587 140.853 12.936C141.429 13.2133 141.883 13.6293 142.213 14.184L141.365 14.76C141.077 14.3333 140.72 14.0187 140.293 13.816C139.867 13.6133 139.403 13.512 138.901 13.512C138.304 13.512 137.765 13.6507 137.285 13.928C136.805 14.1947 136.427 14.5733 136.149 15.064C135.872 15.5547 135.733 16.1307 135.733 16.792C135.733 17.4533 135.872 18.0293 136.149 18.52C136.427 19.0107 136.805 19.3947 137.285 19.672C137.765 19.9387 138.304 20.072 138.901 20.072C139.403 20.072 139.867 19.9707 140.293 19.768C140.72 19.5653 141.077 19.256 141.365 18.84L142.213 19.416C141.883 19.96 141.429 20.376 140.853 20.664C140.277 20.9413 139.632 21.08 138.917 21.08ZM147.064 20.984L147.144 20.008C147.219 20.0187 147.288 20.0347 147.352 20.056C147.427 20.0667 147.491 20.072 147.544 20.072C147.886 20.072 148.158 19.944 148.36 19.688C148.574 19.432 148.734 19.0907 148.84 18.664C148.947 18.2373 149.022 17.7573 149.064 17.224C149.107 16.68 149.144 16.136 149.176 15.592L149.32 12.6H155.48V21H154.344V13.256L154.632 13.592H150.056L150.328 13.24L150.2 15.672C150.168 16.3973 150.11 17.0907 150.024 17.752C149.95 18.4133 149.827 18.9947 149.656 19.496C149.496 19.9973 149.272 20.392 148.984 20.68C148.696 20.9573 148.328 21.096 147.88 21.096C147.752 21.096 147.619 21.0853 147.48 21.064C147.352 21.0427 147.214 21.016 147.064 20.984ZM158.71 21V12.6H159.846V16.216H162.406V17.256H159.846V21H158.71ZM165.942 21.08C165.142 21.08 164.422 20.8987 163.782 20.536C163.152 20.1627 162.656 19.656 162.294 19.016C161.931 18.3653 161.75 17.624 161.75 16.792C161.75 15.9493 161.931 15.208 162.294 14.568C162.656 13.928 163.152 13.4267 163.782 13.064C164.422 12.7013 165.142 12.52 165.942 12.52C166.742 12.52 167.456 12.7013 168.086 13.064C168.715 13.4267 169.211 13.928 169.574 14.568C169.936 15.208 170.118 15.9493 170.118 16.792C170.118 17.624 169.936 18.3653 169.574 19.016C169.211 19.656 168.715 20.1627 168.086 20.536C167.456 20.8987 166.742 21.08 165.942 21.08ZM165.942 20.088C166.528 20.088 167.051 19.9493 167.51 19.672C167.968 19.3947 168.331 19.0107 168.598 18.52C168.864 18.0187 168.998 17.4427 168.998 16.792C168.998 16.1307 168.864 15.5547 168.598 15.064C168.331 14.5733 167.968 14.1947 167.51 13.928C167.051 13.6507 166.528 13.512 165.942 13.512C165.366 13.512 164.843 13.6507 164.374 13.928C163.915 14.1947 163.552 14.5733 163.286 15.064C163.019 15.5547 162.886 16.1307 162.886 16.792C162.886 17.4427 163.019 18.0187 163.286 18.52C163.552 19.0107 163.915 19.3947 164.374 19.672C164.843 19.9493 165.366 20.088 165.942 20.088ZM176.33 21.096C175.647 21.096 175.039 20.984 174.506 20.76C173.983 20.536 173.535 20.1947 173.162 19.736C172.788 19.2773 172.506 18.712 172.314 18.04C172.122 17.3573 172.026 16.568 172.026 15.672C172.026 14.872 172.1 14.1733 172.25 13.576C172.399 12.968 172.607 12.4453 172.874 12.008C173.14 11.5707 173.45 11.2027 173.802 10.904C174.164 10.5947 174.554 10.3493 174.97 10.168C175.396 9.976 175.834 9.832 176.282 9.736L180.058 8.856L180.25 9.912L176.698 10.712C176.474 10.7653 176.202 10.84 175.882 10.936C175.572 11.032 175.252 11.176 174.922 11.368C174.602 11.56 174.303 11.8267 174.026 12.168C173.748 12.5093 173.524 12.952 173.354 13.496C173.194 14.0293 173.114 14.696 173.114 15.496C173.114 15.6667 173.119 15.8053 173.13 15.912C173.14 16.008 173.151 16.1147 173.162 16.232C173.183 16.3387 173.199 16.4987 173.21 16.712L172.714 16.296C172.831 15.6453 173.071 15.08 173.434 14.6C173.796 14.1093 174.25 13.7307 174.794 13.464C175.348 13.1867 175.962 13.048 176.634 13.048C177.412 13.048 178.106 13.2187 178.714 13.56C179.322 13.8907 179.796 14.3547 180.138 14.952C180.49 15.5493 180.666 16.2427 180.666 17.032C180.666 17.8107 180.484 18.5093 180.122 19.128C179.77 19.7467 179.268 20.232 178.618 20.584C177.967 20.9253 177.204 21.096 176.33 21.096ZM176.458 20.152C177.055 20.152 177.583 20.0187 178.042 19.752C178.5 19.4747 178.858 19.1013 179.114 18.632C179.38 18.1627 179.514 17.6347 179.514 17.048C179.514 16.472 179.38 15.96 179.114 15.512C178.858 15.064 178.5 14.712 178.042 14.456C177.583 14.1893 177.05 14.056 176.442 14.056C175.844 14.056 175.316 14.184 174.858 14.44C174.399 14.6853 174.036 15.032 173.77 15.48C173.514 15.928 173.386 16.4453 173.386 17.032C173.386 17.6187 173.514 18.1467 173.77 18.616C174.036 19.0853 174.399 19.4587 174.858 19.736C175.327 20.0133 175.86 20.152 176.458 20.152ZM186.556 21.08C185.746 21.08 185.015 20.8987 184.364 20.536C183.724 20.1627 183.218 19.656 182.844 19.016C182.471 18.3653 182.284 17.624 182.284 16.792C182.284 15.9493 182.471 15.208 182.844 14.568C183.218 13.928 183.724 13.4267 184.364 13.064C185.004 12.7013 185.735 12.52 186.556 12.52C187.388 12.52 188.124 12.7013 188.764 13.064C189.415 13.4267 189.922 13.928 190.284 14.568C190.658 15.208 190.844 15.9493 190.844 16.792C190.844 17.624 190.658 18.3653 190.284 19.016C189.922 19.656 189.415 20.1627 188.764 20.536C188.114 20.8987 187.378 21.08 186.556 21.08ZM186.556 20.072C187.164 20.072 187.703 19.9387 188.172 19.672C188.642 19.3947 189.01 19.0107 189.276 18.52C189.554 18.0187 189.692 17.4427 189.692 16.792C189.692 16.1307 189.554 15.5547 189.276 15.064C189.01 14.5733 188.642 14.1947 188.172 13.928C187.703 13.6507 187.17 13.512 186.572 13.512C185.975 13.512 185.442 13.6507 184.972 13.928C184.503 14.1947 184.13 14.5733 183.852 15.064C183.575 15.5547 183.436 16.1307 183.436 16.792C183.436 17.4427 183.575 18.0187 183.852 18.52C184.13 19.0107 184.503 19.3947 184.972 19.672C185.442 19.9387 185.97 20.072 186.556 20.072ZM193.272 21V12.6H196.984C197.934 12.6 198.68 12.7813 199.224 13.144C199.779 13.5067 200.056 14.04 200.056 14.744C200.056 15.4267 199.795 15.9547 199.272 16.328C198.75 16.6907 198.062 16.872 197.208 16.872L197.432 16.536C198.435 16.536 199.171 16.7227 199.64 17.096C200.11 17.4693 200.344 18.008 200.344 18.712C200.344 19.4373 200.078 20.0027 199.544 20.408C199.022 20.8027 198.206 21 197.096 21H193.272ZM194.376 20.104H197.048C197.763 20.104 198.302 19.992 198.664 19.768C199.038 19.5333 199.224 19.16 199.224 18.648C199.224 18.136 199.059 17.7627 198.728 17.528C198.398 17.2933 197.875 17.176 197.16 17.176H194.376V20.104ZM194.376 16.328H196.904C197.555 16.328 198.051 16.2053 198.392 15.96C198.744 15.7147 198.92 15.3573 198.92 14.888C198.92 14.4187 198.744 14.0667 198.392 13.832C198.051 13.5973 197.555 13.48 196.904 13.48H194.376V16.328ZM206.623 15.56C207.679 15.5707 208.479 15.8053 209.023 16.264C209.577 16.7227 209.855 17.384 209.855 18.248C209.855 19.144 209.556 19.832 208.959 20.312C208.372 20.792 207.519 21.0267 206.399 21.016L203.007 21V12.6H204.143V15.528L206.623 15.56ZM206.335 20.152C207.113 20.1627 207.7 20.008 208.095 19.688C208.5 19.3573 208.703 18.8773 208.703 18.248C208.703 17.6187 208.505 17.16 208.111 16.872C207.716 16.5733 207.124 16.4187 206.335 16.408L204.143 16.376V20.12L206.335 20.152ZM212.022 21V12.6H213.158V16.216H215.718V17.256H213.158V21H212.022ZM219.254 21.08C218.454 21.08 217.734 20.8987 217.094 20.536C216.465 20.1627 215.969 19.656 215.606 19.016C215.244 18.3653 215.062 17.624 215.062 16.792C215.062 15.9493 215.244 15.208 215.606 14.568C215.969 13.928 216.465 13.4267 217.094 13.064C217.734 12.7013 218.454 12.52 219.254 12.52C220.054 12.52 220.769 12.7013 221.398 13.064C222.028 13.4267 222.524 13.928 222.886 14.568C223.249 15.208 223.43 15.9493 223.43 16.792C223.43 17.624 223.249 18.3653 222.886 19.016C222.524 19.656 222.028 20.1627 221.398 20.536C220.769 20.8987 220.054 21.08 219.254 21.08ZM219.254 20.088C219.841 20.088 220.364 19.9493 220.822 19.672C221.281 19.3947 221.644 19.0107 221.91 18.52C222.177 18.0187 222.31 17.4427 222.31 16.792C222.31 16.1307 222.177 15.5547 221.91 15.064C221.644 14.5733 221.281 14.1947 220.822 13.928C220.364 13.6507 219.841 13.512 219.254 13.512C218.678 13.512 218.156 13.6507 217.686 13.928C217.228 14.1947 216.865 14.5733 216.598 15.064C216.332 15.5547 216.198 16.1307 216.198 16.792C216.198 17.4427 216.332 18.0187 216.598 18.52C216.865 19.0107 217.228 19.3947 217.686 19.672C218.156 19.9493 218.678 20.088 219.254 20.088ZM230.054 21V12.6H233.766C234.715 12.6 235.462 12.7813 236.006 13.144C236.56 13.5067 236.838 14.04 236.838 14.744C236.838 15.4267 236.576 15.9547 236.054 16.328C235.531 16.6907 234.843 16.872 233.99 16.872L234.214 16.536C235.216 16.536 235.952 16.7227 236.422 17.096C236.891 17.4693 237.126 18.008 237.126 18.712C237.126 19.4373 236.859 20.0027 236.326 20.408C235.803 20.8027 234.987 21 233.878 21H230.054ZM231.158 20.104H233.83C234.544 20.104 235.083 19.992 235.446 19.768C235.819 19.5333 236.006 19.16 236.006 18.648C236.006 18.136 235.84 17.7627 235.51 17.528C235.179 17.2933 234.656 17.176 233.942 17.176H231.158V20.104ZM231.158 16.328H233.686C234.336 16.328 234.832 16.2053 235.174 15.96C235.526 15.7147 235.702 15.3573 235.702 14.888C235.702 14.4187 235.526 14.0667 235.174 13.832C234.832 13.5973 234.336 13.48 233.686 13.48H231.158V16.328ZM242.391 21L247.511 9.8H248.679L253.799 21H252.551L247.847 10.488H248.327L243.623 21H242.391ZM244.407 18.008L244.759 17.048H251.271L251.623 18.008H244.407ZM257.99 21.08C257.201 21.08 256.593 20.8667 256.166 20.44C255.739 20.0133 255.526 19.4107 255.526 18.632V10.744H256.662V18.568C256.662 19.0587 256.785 19.4373 257.03 19.704C257.286 19.9707 257.649 20.104 258.118 20.104C258.619 20.104 259.035 19.96 259.366 19.672L259.766 20.488C259.542 20.6907 259.27 20.84 258.95 20.936C258.641 21.032 258.321 21.08 257.99 21.08ZM254.022 13.544V12.6H259.222V13.544H254.022ZM267.098 21V19.144L267.05 18.84V15.736C267.05 15.0213 266.847 14.472 266.442 14.088C266.047 13.704 265.455 13.512 264.666 13.512C264.122 13.512 263.605 13.6027 263.114 13.784C262.623 13.9653 262.207 14.2053 261.866 14.504L261.354 13.656C261.781 13.2933 262.293 13.016 262.89 12.824C263.487 12.6213 264.117 12.52 264.778 12.52C265.866 12.52 266.703 12.792 267.29 13.336C267.887 13.8693 268.186 14.6853 268.186 15.784V21H267.098ZM264.202 21.08C263.573 21.08 263.023 20.9787 262.554 20.776C262.095 20.5627 261.743 20.2747 261.498 19.912C261.253 19.5387 261.13 19.112 261.13 18.632C261.13 18.1947 261.231 17.8 261.434 17.448C261.647 17.0853 261.989 16.7973 262.458 16.584C262.938 16.36 263.578 16.248 264.378 16.248H267.274V17.096H264.41C263.599 17.096 263.034 17.24 262.714 17.528C262.405 17.816 262.25 18.1733 262.25 18.6C262.25 19.08 262.437 19.464 262.81 19.752C263.183 20.04 263.706 20.184 264.378 20.184C265.018 20.184 265.567 20.04 266.026 19.752C266.495 19.4533 266.837 19.0267 267.05 18.472L267.306 19.256C267.093 19.8107 266.719 20.2533 266.186 20.584C265.663 20.9147 265.002 21.08 264.202 21.08ZM275.56 12.52C276.242 12.52 276.84 12.6533 277.352 12.92C277.874 13.176 278.28 13.5707 278.568 14.104C278.866 14.6373 279.016 15.3093 279.016 16.12V21H277.88V16.232C277.88 15.3467 277.656 14.68 277.208 14.232C276.77 13.7733 276.152 13.544 275.352 13.544C274.754 13.544 274.232 13.6667 273.784 13.912C273.346 14.1467 273.005 14.4933 272.76 14.952C272.525 15.4 272.408 15.944 272.408 16.584V21H271.272V12.6H272.36V14.904L272.184 14.472C272.45 13.864 272.877 13.3893 273.464 13.048C274.05 12.696 274.749 12.52 275.56 12.52ZM282.98 18.824L283.012 17.368L288.244 12.6H289.636L285.94 16.136L285.3 16.68L282.98 18.824ZM282.084 21V9.128H283.22V21H282.084ZM288.596 21L285.092 16.632L285.828 15.752L289.988 21H288.596Z" fill="#1B1B1B"/>
</svg>
