<svg width="42" height="31" viewBox="0 0 42 31" fill="none" xmlns="http://www.w3.org/2000/svg">
<mask id="mask0_126_549" style="mask-type:alpha" maskUnits="userSpaceOnUse" x="0" y="0" width="42" height="31">
<path d="M16.9356 0.316226C17.8396 0.334139 18.7457 0.238253 19.6476 0.333085C19.7291 1.32777 20.0319 2.28662 20.2065 3.26656C19.5079 3.12642 18.7955 3.16856 18.0894 3.16119C17.9836 2.92938 17.8862 2.69862 17.7793 2.47102C17.4987 1.7503 17.1505 1.05592 16.9324 0.312011L16.9356 0.316226ZM20.758 0.60599C22.3924 0.493246 24.5 1.34884 26 1.97579C27.284 2.61959 28.5955 3.28552 30.0309 3.51207C31.0486 3.67054 32.0828 3.69569 33.1071 3.58688C33.1695 3.58161 33.142 3.57107 33.1643 3.65853C33.5305 5.1063 33.8756 6.57198 34.2228 8.02607C34.594 9.57148 34.9624 11.1169 35.3279 12.6623C35.0104 12.8309 34.6621 12.9036 34.3392 13.0511C34.1783 13.1291 34.0217 13.2092 33.8576 13.285C32.6022 13.9647 31.6833 15.1174 30.8767 16.2638C32.2094 16.2638 33.5411 16.2501 34.8738 16.2712C43.1623 16.8823 41.7766 30.2905 35.9324 30.2905L4.86811 30.2779C-0.72951 30.2916 -3.53573 16.3597 7.9305 16.2638C7.0265 14.0416 6.90371 11.5412 7.49014 9.22412C7.51555 8.86692 7.79924 9.1472 7.9866 9.21358C8.23325 9.3769 8.48306 9.52969 8.74241 9.67615C9.07567 9.848 9.4 10.0365 9.71416 10.2409C9.26004 11.7909 9.40718 13.4578 9.91105 14.9825C10.0794 15.4166 10.218 15.8645 10.4403 16.2744C16.1269 16.268 21.8127 16.268 27.4978 16.2744C28.4918 14.8666 29.4276 13.3936 30.6904 12.2039C30.322 12.3304 29.942 12.4147 29.5694 12.5327C29.4636 12.1997 29.382 11.8604 29.2677 11.5317C29.002 11.9353 28.7649 12.3473 28.2505 12.46C27.917 12.5327 27.556 12.284 27.3835 12.3778C27.2861 12.4474 27.2088 12.5485 27.0892 12.6317C26.8373 12.8147 26.5151 12.8726 26.2149 12.7887C25.8973 12.7066 25.8729 12.715 25.6178 12.9268C25.5638 12.9723 25.5065 13.0138 25.4464 13.0511C25.1733 13.2311 24.8254 13.2555 24.5296 13.1154C24.0798 12.9047 23.7431 12.558 23.4118 12.2008C22.4062 12.5274 21.3551 12.7055 20.3283 12.9563C19.9857 12.8764 19.6591 12.74 19.3618 12.5527C19.0622 12.0722 19.0104 11.4653 19.0972 10.9121L19.4571 10.5697C20.5548 10.2378 21.5943 10.007 22.7153 9.77836C22.9132 9.73832 22.8762 9.7615 22.9408 9.97329C22.9947 10.1356 23.0466 10.2968 23.0879 10.4622C23.1736 10.6118 23.2615 10.7625 23.3494 10.9111C23.3885 10.2662 23.2435 10.0165 23.09 9.42853C22.9842 9.01443 23.1387 8.90169 23.379 8.58558C23.5293 8.39275 23.6828 8.21257 23.9199 8.12828C24.5551 8.03345 24.9859 8.95542 25.168 9.43169C25.2738 9.70987 25.3659 9.99226 25.4855 10.2683C25.566 9.48648 25.3744 8.98704 25.0737 8.28633C24.9552 8.01027 25.0039 7.9776 25.2855 7.86486C25.8571 7.6478 26.2381 7.67519 26.5991 8.19993C26.6792 8.30592 26.7521 8.41716 26.8172 8.5329C26.887 8.74363 26.9421 8.9491 27.0194 9.16511C27.0966 9.38112 27.1856 9.60028 27.2819 9.81524C27.3422 9.13666 27.2628 8.74047 26.9791 8.12933C26.893 7.96818 26.8299 7.79581 26.7918 7.61724C26.7854 7.56561 26.7918 7.57615 26.8394 7.52768C27.3348 7.12727 28.0896 7.49396 28.369 7.98392C28.5119 8.2347 28.6146 8.64775 28.712 8.93224L28.8517 9.34002H28.9639C28.9978 8.3917 28.5913 7.63094 28.1944 6.80274C28.5765 6.7058 28.9607 6.61623 29.3514 6.55723L29.1089 6.3486C28.7208 6.32164 28.3377 6.24551 27.9689 6.12205C27.5656 5.94609 27.1422 5.81648 26.7526 5.60996C25.0187 4.76701 23.3515 3.6364 21.3857 3.41934C21.1666 2.48366 20.9803 1.54061 20.7591 0.604937L20.758 0.60599ZM8.04377 28.3012L34.4811 28.318C39.3885 28.2864 38.438 18.5187 34.0947 18.5261C25.2608 18.5219 16.4278 18.5219 7.596 18.5261C1.79408 18.6631 1.69775 28.3043 8.04271 28.3033L8.04377 28.3012ZM13.3196 1.67443C14.0748 1.25213 14.8838 0.933144 15.7246 0.726111C15.8732 0.999392 16.006 1.28083 16.1226 1.56906C16.2486 1.8641 16.3608 2.1644 16.491 2.46048C16.6074 2.72601 16.7165 2.99576 16.8255 3.2655C16.1411 3.42789 15.4753 3.65987 14.8386 3.95778C14.3093 3.21176 13.8213 2.43941 13.3196 1.67549V1.67443ZM10.0381 4.29496C10.7051 3.56577 11.4505 2.91172 12.261 2.34458C12.7501 3.08216 13.2921 3.78919 13.6954 4.57524C13.1259 5.01357 12.5384 5.44032 12.0504 5.97243C11.3507 5.44559 10.6954 4.87027 10.0391 4.29496H10.0381ZM37.1455 5.55938C37.6059 7.42652 38.1437 9.27364 38.565 11.1513C38.6708 11.6213 38.6645 12.087 38.0992 12.205C37.4196 12.3241 37.2333 11.0934 37.1275 10.6371L37.119 10.6034C36.649 8.69727 36.1663 6.79536 35.7027 4.88713C35.5852 4.50148 35.221 3.32556 35.5206 3.01051C35.7323 2.7924 36.1557 2.79977 36.3748 3.01051C36.576 3.20017 36.6585 3.61111 36.7316 3.8777C36.884 4.43404 37.0089 4.99777 37.1465 5.55728L37.1455 5.55938ZM36.9422 11.2187C37.0205 11.6065 37.2312 12.322 36.757 12.5369C36.5061 12.6507 36.1981 12.6233 36.0245 12.3915C35.8509 12.1597 35.7799 11.8088 35.7069 11.5412L35.601 11.1661C35.0887 9.28944 34.6875 7.38437 34.1889 5.50354C34.0905 5.17795 33.6829 3.83766 33.8195 3.58793C33.9772 3.30133 34.6399 3.10429 34.859 3.45833C35.0781 3.81237 35.2073 4.45828 35.311 4.87554C35.8403 6.9924 36.3939 9.10294 36.9338 11.2177L36.9422 11.2187ZM38.6624 4.93665C39.0858 6.49401 39.4288 8.06084 39.8797 9.61293C40.0152 10.0787 40.2333 10.7614 39.6161 10.9827C39.2149 11.1271 38.9355 10.8942 38.7873 10.536C38.6391 10.1777 38.5544 9.67193 38.4644 9.2905C38.2457 8.37098 38.0159 7.45462 37.7753 6.54142C37.5922 5.69847 37.2968 4.85552 37.156 4.01257C37.0692 3.48572 37.3191 3.15803 37.8674 3.27499C38.2453 3.35507 38.3501 3.6638 38.4464 3.9936C38.5353 4.30339 38.5756 4.62582 38.6581 4.94192L38.6624 4.93665ZM38.9005 3.85768C41.0992 3.70805 42.7526 8.61087 40.3709 9.88056C39.903 7.86802 39.3832 5.86811 38.9005 3.85768ZM8.09669 7.43495C8.47036 6.65522 8.84509 5.87338 9.38495 5.19165C10.0254 5.73956 10.6901 6.26641 11.2946 6.86596C10.9182 7.31331 10.6049 7.80959 10.3631 8.34112C10.2508 8.58558 10.1369 8.83144 10.0211 9.07871C9.52891 8.8058 9.06844 8.47916 8.55505 8.24313C8.33275 8.1072 8.11469 7.96285 7.9051 7.80796C7.96861 7.68573 8.02894 7.56245 8.09034 7.43811L8.09669 7.43495Z" fill="black"/>
<path d="M8.81641 21.4395C9.73601 21.4398 10.5273 22.0867 10.7064 22.9846C10.8854 23.8824 10.4024 24.7812 9.55272 25.1312C8.70301 25.4812 7.72323 25.185 7.21256 24.4238C6.7019 23.6625 6.80256 22.6482 7.453 22.0011C7.81432 21.6408 8.30498 21.4387 8.81641 21.4395ZM10.9695 20.5691L11.6184 21.215C11.7273 21.3236 11.7273 21.4995 11.6184 21.6081L11.2161 22.0085L11.1929 22.0285C11.3007 22.2163 11.386 22.4161 11.4469 22.6238H12.0408C12.1146 22.6238 12.1854 22.653 12.2376 22.705C12.2899 22.7569 12.3192 22.8274 12.3192 22.9009V23.8145C12.3192 23.9681 12.194 24.0927 12.0397 24.0927H11.4691C11.4131 24.3098 11.3306 24.5192 11.2236 24.7164L11.6173 25.1084C11.7262 25.217 11.7262 25.3929 11.6173 25.5014L10.9684 26.1474C10.8594 26.2557 10.6827 26.2557 10.5736 26.1474L10.2042 25.7796C10.0006 25.9014 9.78218 25.9967 9.55422 26.0631V26.611C9.55422 26.7646 9.4291 26.8892 9.27476 26.8892H8.36123C8.28739 26.8892 8.21657 26.86 8.16434 26.808C8.11214 26.756 8.08282 26.6855 8.08283 26.612V26.0852C7.84432 26.0241 7.61505 25.9316 7.40113 25.8102L7.02005 26.1895C6.91096 26.2979 6.7343 26.2979 6.62521 26.1895L5.97632 25.5436C5.86743 25.435 5.86743 25.2592 5.97632 25.1506L6.35739 24.7712C6.23538 24.5583 6.14247 24.3301 6.08111 24.0927H5.55184C5.47799 24.0927 5.40717 24.0635 5.35495 24.0115C5.30274 23.9595 5.27342 23.889 5.27344 23.8155V22.902C5.27344 22.7484 5.39855 22.6238 5.5529 22.6238H6.10334C6.17002 22.3969 6.26572 22.1795 6.38809 21.9769L6.01866 21.6091C5.90977 21.5005 5.90977 21.3247 6.01866 21.2161L6.66755 20.5702C6.77664 20.4618 6.9533 20.4618 7.06239 20.5702L7.45617 20.9622C7.65429 20.8556 7.86473 20.7735 8.08283 20.7177V20.1498C8.08283 19.9961 8.20795 19.8716 8.36229 19.8716H9.28006C9.3539 19.8716 9.42472 19.9008 9.47695 19.9527C9.52915 20.0047 9.55847 20.0752 9.55845 20.1487V20.7145C9.55845 20.723 9.55845 20.7314 9.55845 20.7398C9.7671 20.8005 9.96784 20.8853 10.1565 20.9927L10.1766 20.9695L10.5789 20.5691C10.688 20.4607 10.8646 20.4607 10.9737 20.5691H10.9695ZM11.3612 21.4121L10.7726 20.8262L10.4307 21.1666L10.4593 21.195C10.6586 21.3462 10.8367 21.5234 10.9886 21.7219L11.0171 21.7503L11.3591 21.41L11.3612 21.4121ZM11.9963 23.7734V22.9441H11.5189C11.5644 23.2184 11.5687 23.4979 11.5316 23.7734H11.9963ZM10.7694 25.8913L11.358 25.3055L11.0478 24.9967C10.887 25.2237 10.6929 25.4254 10.472 25.5952L10.7684 25.8903L10.7694 25.8913ZM8.39722 26.5688H9.2303V26.1358C8.95477 26.181 8.67401 26.1853 8.39722 26.1484V26.5699V26.5688ZM6.22613 25.3476L6.81469 25.9335L7.11743 25.6321C6.893 25.4671 6.69462 25.2697 6.52888 25.0463L6.22613 25.3476ZM5.591 22.9441V23.7734H6.01442C5.97731 23.4979 5.98159 23.2184 6.02713 22.9441H5.591ZM6.86127 20.8262L6.27271 21.4121L6.56911 21.7071C6.73965 21.4872 6.94231 21.294 7.17036 21.1339L6.86021 20.8252L6.86127 20.8262ZM9.23348 20.194H8.4004V20.6566C8.67718 20.6196 8.95796 20.6239 9.23348 20.6692V20.194ZM10.4402 21.7461C9.64559 20.9554 8.40054 20.8336 7.4664 21.455C6.53225 22.0764 6.16916 23.2682 6.59915 24.3014C7.02913 25.3347 8.13245 25.9218 9.23444 25.7037C10.3364 25.4855 11.1302 24.523 11.1304 23.4046C11.1312 22.7824 10.8828 22.1855 10.4402 21.7461ZM9.87708 22.3067C9.37122 21.8034 8.57862 21.726 7.98414 22.1218C7.38965 22.5176 7.1589 23.2763 7.43304 23.9339C7.70718 24.5914 8.40984 24.9646 9.11118 24.8251C9.81252 24.6856 10.3171 24.0723 10.3164 23.3603C10.3165 22.9649 10.1584 22.5858 9.87708 22.3067Z" fill="black"/>
<path d="M16.5394 21.4395C17.459 21.4398 18.2503 22.0867 18.4294 22.9846C18.6084 23.8824 18.1254 24.7812 17.2757 25.1312C16.426 25.4812 15.4462 25.185 14.9355 24.4238C14.4249 23.6625 14.5255 22.6482 15.176 22.0011C15.5373 21.6408 16.028 21.4387 16.5394 21.4395ZM18.6925 20.5691L19.3414 21.215C19.4503 21.3236 19.4503 21.4995 19.3414 21.6081L18.9391 22.0085L18.9158 22.0285C19.0237 22.2163 19.109 22.4161 19.1699 22.6238H19.7637C19.8376 22.6238 19.9084 22.653 19.9606 22.705C20.0128 22.7569 20.0422 22.8274 20.0421 22.9009V23.8145C20.0421 23.9681 19.917 24.0927 19.7627 24.0927H19.1921C19.1361 24.3098 19.0536 24.5192 18.9465 24.7164L19.3403 25.1084C19.4492 25.217 19.4492 25.3929 19.3403 25.5014L18.6914 26.1474C18.5823 26.2557 18.4057 26.2557 18.2966 26.1474L17.9272 25.7796C17.7236 25.9014 17.5052 25.9967 17.2772 26.0631V26.611C17.2772 26.7646 17.1521 26.8892 16.9977 26.8892H16.08C16.0061 26.8892 15.9353 26.86 15.8831 26.808C15.8309 26.756 15.8016 26.6855 15.8016 26.612V26.0852C15.5631 26.0241 15.3338 25.9316 15.1199 25.8102L14.7388 26.1895C14.6297 26.2979 14.453 26.2979 14.344 26.1895L13.6951 25.5436C13.5862 25.435 13.5862 25.2592 13.6951 25.1506L14.0761 24.7712C13.9541 24.5583 13.8612 24.3301 13.7999 24.0927H13.2706C13.1967 24.0927 13.1259 24.0635 13.0737 24.0115C13.0215 23.9595 12.9922 23.889 12.9922 23.8155V22.902C12.9922 22.7484 13.1173 22.6238 13.2716 22.6238H13.8221C13.8888 22.3969 13.9845 22.1795 14.1068 21.9769L13.7374 21.6091C13.6285 21.5005 13.6285 21.3247 13.7374 21.2161L14.3863 20.5702C14.4954 20.4618 14.672 20.4618 14.7811 20.5702L15.1749 20.9622C15.373 20.8556 15.5835 20.7735 15.8016 20.7177V20.1498C15.8016 19.9961 15.9267 19.8716 16.081 19.8716H16.9988C17.0726 19.8716 17.1435 19.9008 17.1957 19.9527C17.2479 20.0047 17.2772 20.0752 17.2772 20.1487V20.7145C17.2772 20.723 17.2772 20.7314 17.2772 20.7398C17.4858 20.8005 17.6866 20.8853 17.8753 20.9927L17.8954 20.9695L18.2976 20.5691C18.4067 20.4607 18.5834 20.4607 18.6925 20.5691ZM19.0842 21.4121L18.4956 20.8262L18.1537 21.1666L18.1823 21.195C18.3816 21.3462 18.5596 21.5234 18.7115 21.7219L18.7401 21.7503L19.082 21.41L19.0842 21.4121ZM19.7193 23.7734V22.9441H19.2419C19.2874 23.2184 19.2917 23.4979 19.2546 23.7734H19.7193ZM18.4924 25.8913L19.081 25.3055L18.7708 24.9967C18.6099 25.2237 18.4158 25.4254 18.195 25.5952L18.4914 25.8903L18.4924 25.8913ZM16.1202 26.5688H16.9522V26.1358C16.677 26.1809 16.3966 26.1852 16.1202 26.1484V26.5699V26.5688ZM13.9491 25.3476L14.5377 25.9335L14.8404 25.6321C14.616 25.4671 14.4176 25.2696 14.2519 25.0463L13.9491 25.3476ZM13.314 22.9441V23.7734H13.7374C13.7003 23.4979 13.7046 23.2184 13.7501 22.9441H13.314ZM14.5842 20.8262L13.9957 21.4121L14.2921 21.7071C14.4626 21.4872 14.6653 21.294 14.8933 21.1339L14.5832 20.8252L14.5842 20.8262ZM16.9565 20.194H16.1234V20.6566C16.4002 20.6196 16.6809 20.6239 16.9565 20.6692V20.194ZM18.1632 21.7461C17.3686 20.9554 16.1235 20.8336 15.1894 21.455C14.2552 22.0764 13.8921 23.2682 14.3221 24.3014C14.7521 25.3347 15.8554 25.9218 16.9574 25.7037C18.0594 25.4855 18.8532 24.523 18.8534 23.4046C18.8542 22.7824 18.6058 22.1855 18.1632 21.7461ZM17.6001 22.3067C17.0942 21.8034 16.3016 21.726 15.7071 22.1218C15.1126 22.5176 14.8819 23.2763 15.156 23.9339C15.4302 24.5914 16.1328 24.9646 16.8342 24.8251C17.5355 24.6856 18.0401 24.0723 18.0394 23.3603C18.0395 22.9649 17.8814 22.5858 17.6001 22.3067Z" fill="black"/>
<path d="M24.4577 21.3231C25.3773 21.3235 26.1686 21.9704 26.3477 22.8682C26.5267 23.7661 26.0437 24.6648 25.194 25.0148C24.3443 25.3648 23.3645 25.0687 22.8538 24.3074C22.3432 23.5461 22.4438 22.5318 23.0943 21.8847C23.4556 21.5244 23.9463 21.3223 24.4577 21.3231ZM26.6108 20.4528L27.2597 21.0987C27.3686 21.2073 27.3686 21.3831 27.2597 21.4917L26.8574 21.8921L26.8341 21.9121C26.942 22.0999 27.0273 22.2998 27.0882 22.5075H27.682C27.7559 22.5074 27.8267 22.5366 27.8789 22.5886C27.9311 22.6406 27.9605 22.7111 27.9604 22.7846V23.6981C27.9604 23.8518 27.8353 23.9763 27.681 23.9763H27.1104C27.0544 24.1934 26.9719 24.4029 26.8648 24.6001L27.2586 24.9921C27.3675 25.1006 27.3675 25.2765 27.2586 25.3851L26.6097 26.031C26.5006 26.1394 26.324 26.1394 26.2149 26.031L25.8455 25.6633C25.6419 25.7851 25.4235 25.8803 25.1955 25.9467V26.4967C25.1955 26.6504 25.0704 26.7749 24.916 26.7749H23.9983C23.9244 26.7749 23.8536 26.7457 23.8014 26.6938C23.7492 26.6418 23.7199 26.5713 23.7199 26.4978V25.9709C23.4814 25.9099 23.2521 25.8174 23.0382 25.6959L22.6529 26.0752C22.5438 26.1836 22.3671 26.1836 22.258 26.0752L21.6091 25.4293C21.5002 25.3207 21.5002 25.1449 21.6091 25.0363L21.9902 24.657C21.8682 24.444 21.7753 24.2158 21.7139 23.9784H21.1846C21.1108 23.9784 21.04 23.9492 20.9878 23.8973C20.9356 23.8453 20.9062 23.7748 20.9063 23.7013V22.7877C20.9063 22.6341 21.0314 22.5096 21.1857 22.5096H21.7362C21.8028 22.2826 21.8985 22.0652 22.0209 21.8626L21.6515 21.4949C21.5426 21.3863 21.5426 21.2104 21.6515 21.1018L22.3004 20.4559C22.4095 20.3475 22.5861 20.3475 22.6952 20.4559L23.089 20.8479C23.2871 20.7413 23.4975 20.6592 23.7156 20.6034V20.0355C23.7156 19.8819 23.8408 19.7573 23.9951 19.7573H24.9129C24.9867 19.7573 25.0575 19.7865 25.1098 19.8385C25.162 19.8904 25.1913 19.9609 25.1913 20.0344V20.5961C25.1913 20.6045 25.1913 20.6129 25.1913 20.6213C25.3999 20.682 25.6007 20.7669 25.7894 20.8742L25.8095 20.8511L26.2117 20.4507C26.3208 20.3423 26.4975 20.3423 26.6066 20.4507L26.6108 20.4528ZM27.0025 21.2957L26.4139 20.7099L26.072 21.0502L26.1006 21.0787C26.2999 21.2299 26.4779 21.4071 26.6298 21.6055L26.6584 21.6339L27.0003 21.2936L27.0025 21.2957ZM27.6376 23.657V22.8278H27.1623C27.2078 23.102 27.2121 23.3815 27.175 23.657H27.6376ZM26.4107 25.7749L26.9993 25.1891L26.6891 24.8804C26.5283 25.1074 26.3342 25.3091 26.1133 25.4789L26.4097 25.7739L26.4107 25.7749ZM24.0385 26.4525H24.8758V26.0194C24.6006 26.0645 24.3202 26.0688 24.0438 26.032V26.4535L24.0385 26.4525ZM21.8706 25.2323L22.4591 25.8181L22.7619 25.5168C22.5375 25.3518 22.3391 25.1543 22.1733 24.9309L21.8706 25.2323ZM21.2355 22.8288V23.6518H21.6589C21.6218 23.3762 21.6261 23.0968 21.6716 22.8225L21.2355 22.8288ZM22.5057 20.7109L21.9119 21.2957L22.2083 21.5907C22.3788 21.3709 22.5815 21.1777 22.8095 21.0175L22.4994 20.7088L22.5057 20.7109ZM24.8779 20.0787H24.0459V20.5413C24.3224 20.5044 24.6028 20.5087 24.8779 20.5539V20.0787ZM26.0847 21.6308C25.2901 20.8401 24.045 20.7182 23.1109 21.3397C22.1767 21.9611 21.8136 23.1529 22.2436 24.1861C22.6736 25.2194 23.7769 25.8064 24.8789 25.5883C25.9809 25.3702 26.7747 24.4077 26.7749 23.2893C26.7757 22.6671 26.5273 22.0702 26.0847 21.6308ZM25.5215 22.1913C25.0157 21.6881 24.2231 21.6107 23.6286 22.0065C23.0341 22.4023 22.8034 23.161 23.0775 23.8185C23.3516 24.4761 24.0543 24.8492 24.7556 24.7097C25.457 24.5702 25.9616 23.957 25.9608 23.245C25.961 22.8496 25.8029 22.4705 25.5215 22.1913Z" fill="black"/>
<path d="M32.2844 21.3236C33.204 21.324 33.9953 21.9709 34.1744 22.8688C34.3535 23.7666 33.8705 24.6654 33.0207 25.0154C32.171 25.3654 31.1912 25.0692 30.6806 24.3079C30.1699 23.5467 30.2706 22.5323 30.921 21.8853C31.2823 21.525 31.773 21.3229 32.2844 21.3236ZM34.4375 20.4533L35.0864 21.0992C35.1953 21.2078 35.1953 21.3836 35.0864 21.4922L34.6842 21.8926L34.6609 21.9127C34.7687 22.1005 34.854 22.3003 34.9149 22.508H35.5088C35.5826 22.508 35.6534 22.5372 35.7057 22.5891C35.7579 22.6411 35.7872 22.7116 35.7872 22.7851V23.6987C35.7872 23.8523 35.6621 23.9768 35.5077 23.9768H34.9372C34.8811 24.1939 34.7987 24.4034 34.6916 24.6006L35.0854 24.9926C35.1942 25.1012 35.1942 25.277 35.0854 25.3856L34.4365 26.0315C34.3274 26.1399 34.1507 26.1399 34.0416 26.0315L33.6722 25.6638C33.4686 25.7856 33.2502 25.8809 33.0222 25.9472V26.4973C33.0222 26.6509 32.8971 26.7754 32.7428 26.7754H31.825C31.7512 26.7755 31.6804 26.7463 31.6281 26.6943C31.5745 26.6426 31.544 26.5716 31.5434 26.4973V25.9704C31.3049 25.9094 31.0757 25.8169 30.8617 25.6954L30.4849 26.0758C30.3758 26.1842 30.1991 26.1842 30.0901 26.0758L29.4412 25.4299C29.3323 25.3213 29.3323 25.1454 29.4412 25.0368L29.8222 24.6575C29.7002 24.4446 29.6073 24.2164 29.546 23.9789H29.0167C28.9428 23.979 28.872 23.9498 28.8198 23.8978C28.7676 23.8458 28.7383 23.7753 28.7383 23.7018V22.7883C28.7383 22.6346 28.8634 22.5101 29.0177 22.5101H29.5682C29.6337 22.2826 29.7283 22.0645 29.8498 21.861L29.4803 21.4933C29.3714 21.3847 29.3714 21.2089 29.4803 21.1003L30.1292 20.4544C30.2383 20.346 30.415 20.346 30.5241 20.4544L30.9178 20.8463C31.1154 20.738 31.3255 20.6542 31.5434 20.5966V20.0287C31.5434 19.875 31.6686 19.7505 31.8229 19.7505H32.7407C32.8145 19.7505 32.8853 19.7797 32.9376 19.8316C32.9898 19.8836 33.0191 19.9541 33.0191 20.0276V20.5966C33.0191 20.605 33.0191 20.6135 33.0191 20.6219C33.2277 20.6825 33.4284 20.7674 33.6171 20.8748L33.6373 20.8516L34.0395 20.4512C34.1486 20.3428 34.3253 20.3428 34.4343 20.4512L34.4375 20.4533ZM34.8292 21.2963L34.2406 20.7104L33.8987 21.0507L33.9273 21.0792C34.1266 21.2304 34.3047 21.4076 34.4566 21.606L34.4852 21.6345L34.8271 21.2941L34.8292 21.2963ZM35.4643 23.6576V22.8283H34.9869C35.0324 23.1026 35.0367 23.3821 34.9996 23.6576H35.4643ZM34.2375 25.7755L34.826 25.1896L34.5159 24.8809C34.355 25.1079 34.1609 25.3096 33.94 25.4794L34.2364 25.7744L34.2375 25.7755ZM31.8652 26.453H32.6983V26.0199C32.4228 26.0652 32.142 26.0695 31.8652 26.0326V26.4541V26.453ZM29.6973 25.2328L30.2859 25.8187L30.5886 25.5173C30.3642 25.3523 30.1658 25.1549 30.0001 24.9315L29.6973 25.2328ZM29.0622 22.8294V23.6523H29.4856C29.4485 23.3768 29.4528 23.0973 29.4983 22.823L29.0622 22.8294ZM30.3325 20.7115L29.7439 21.2963L30.0403 21.5913C30.2109 21.3714 30.4135 21.1782 30.6416 21.0181L30.3314 20.7093L30.3325 20.7115ZM32.7047 20.0792H31.8716V20.5418C32.1484 20.5048 32.4291 20.5091 32.7047 20.5545V20.0792ZM33.9114 21.6313C33.1168 20.8407 31.8717 20.7188 30.9376 21.3402C30.0034 21.9617 29.6404 23.1534 30.0703 24.1867C30.5003 25.2199 31.6036 25.807 32.7056 25.5889C33.8076 25.3708 34.6014 24.4082 34.6016 23.2898C34.6024 22.6676 34.354 22.0707 33.9114 21.6313ZM33.343 22.1877C32.8371 21.6844 32.0445 21.607 31.45 22.0028C30.8556 22.3986 30.6248 23.1573 30.8989 23.8149C31.1731 24.4724 31.8757 24.8456 32.5771 24.7061C33.2784 24.5666 33.7831 23.9533 33.7823 23.2414C33.7824 22.846 33.6243 22.4668 33.343 22.1877Z" fill="black"/>
</mask>
<g mask="url(#mask0_126_549)">
<rect x="-3.72461" y="-1.75928" width="49.9409" height="33.359" fill="#1B1B1B"/>
</g>
</svg>
