<svg width="18" height="20" viewBox="0 0 18 20" fill="none" xmlns="http://www.w3.org/2000/svg">
<path d="M14.5399 6.31001C15.8986 6.31001 17 5.20863 17 3.85001C17 2.49139 15.8986 1.39001 14.5399 1.39001C13.1813 1.39001 12.08 2.49139 12.08 3.85001C12.08 5.20863 13.1813 6.31001 14.5399 6.31001Z" stroke="#4B4B4B" stroke-width="1.5" stroke-miterlimit="10" stroke-linecap="round" stroke-linejoin="round"/>
<path d="M3.46001 6.31001C4.81863 6.31001 5.92 5.20863 5.92 3.85001C5.92 2.49139 4.81863 1.39001 3.46001 1.39001C2.10139 1.39001 1 2.49139 1 3.85001C1 5.20863 2.10139 6.31001 3.46001 6.31001Z" stroke="#4B4B4B" stroke-width="1.5" stroke-miterlimit="10" stroke-linecap="round" stroke-linejoin="round"/>
<path d="M14.5399 18.6101C15.8986 18.6101 17 17.5087 17 16.1501C17 14.7914 15.8986 13.6901 14.5399 13.6901C13.1813 13.6901 12.08 14.7914 12.08 16.1501C12.08 17.5087 13.1813 18.6101 14.5399 18.6101Z" stroke="#4B4B4B" stroke-width="1.5" stroke-miterlimit="10" stroke-linecap="round" stroke-linejoin="round"/>
<path d="M3.46001 18.6101C4.81863 18.6101 5.92 17.5087 5.92 16.1501C5.92 14.7914 4.81863 13.6901 3.46001 13.6901C2.10139 13.6901 1 14.7914 1 16.1501C1 17.5087 2.10139 18.6101 3.46001 18.6101Z" stroke="#4B4B4B" stroke-width="1.5" stroke-miterlimit="10" stroke-linecap="round" stroke-linejoin="round"/>
</svg>
