<svg width="24" height="14" viewBox="0 0 24 14" fill="none" xmlns="http://www.w3.org/2000/svg">
<path d="M23.8728 12.5187C23.8437 12.4561 23.8166 12.4041 23.7915 12.3625C23.3751 11.6126 22.5793 10.6921 21.4047 9.60073L21.3799 9.57574L21.3675 9.56348L21.3549 9.55092H21.3423C20.8093 9.04274 20.4717 8.70105 20.3303 8.52611C20.0716 8.19287 20.0137 7.85556 20.1551 7.51378C20.2549 7.25555 20.6301 6.71022 21.2797 5.87702C21.6214 5.43545 21.892 5.08155 22.0918 4.81492C23.5331 2.8988 24.158 1.67437 23.9663 1.14116L23.8919 1.01655C23.8418 0.941536 23.7127 0.872909 23.5047 0.810322C23.2962 0.747866 23.0297 0.737538 22.7047 0.77916L19.106 0.804019C19.0477 0.783361 18.9645 0.785287 18.856 0.810322C18.7477 0.835357 18.6935 0.847918 18.6935 0.847918L18.6309 0.879211L18.5812 0.916807C18.5395 0.941667 18.4937 0.985391 18.4436 1.04789C18.3939 1.11017 18.3523 1.18326 18.319 1.26655C17.9272 2.27455 17.4817 3.21174 16.9818 4.07806C16.6735 4.59465 16.3904 5.04234 16.1319 5.42141C15.8737 5.80034 15.6571 6.07953 15.4823 6.25849C15.3073 6.43763 15.1493 6.58115 15.0074 6.68956C14.8657 6.79801 14.7575 6.84384 14.6827 6.82707C14.6076 6.81031 14.5369 6.79368 14.47 6.77705C14.3534 6.70203 14.2597 6.60001 14.189 6.4709C14.118 6.34178 14.0702 6.17928 14.0452 5.98351C14.0204 5.7876 14.0057 5.6191 14.0015 5.47743C13.9976 5.33593 13.9994 5.13578 14.0078 4.87756C14.0165 4.6192 14.0204 4.44439 14.0204 4.35274C14.0204 4.03613 14.0265 3.69252 14.0389 3.32181C14.0515 2.9511 14.0617 2.65738 14.0703 2.441C14.0788 2.22439 14.0827 1.99523 14.0827 1.75363C14.0827 1.51204 14.068 1.32257 14.0389 1.18506C14.0102 1.04771 13.9661 0.9144 13.9081 0.785156C13.8496 0.656043 13.7641 0.556166 13.6519 0.485264C13.5395 0.414449 13.3997 0.358251 13.2333 0.316498C12.7917 0.216577 12.2295 0.162525 11.5462 0.154122C9.99683 0.13749 9.00126 0.237542 8.55974 0.454145C8.3848 0.545662 8.22649 0.670705 8.08495 0.828879C7.93496 1.01222 7.91404 1.11227 8.02232 1.12873C8.52223 1.20361 8.87613 1.38275 9.08442 1.66597L9.15948 1.81605C9.21786 1.92433 9.27616 2.11603 9.3345 2.39088C9.39275 2.66574 9.43035 2.96979 9.44689 3.30286C9.48847 3.91109 9.48847 4.43174 9.44689 4.86486C9.40518 5.29816 9.36579 5.63547 9.3282 5.87706C9.2906 6.11866 9.23441 6.31443 9.15948 6.46433C9.08442 6.61428 9.03448 6.70593 9.00944 6.73919C8.98445 6.77245 8.96362 6.79342 8.94708 6.80164C8.8388 6.84314 8.72618 6.86428 8.60963 6.86428C8.4929 6.86428 8.35136 6.80589 8.18478 6.68921C8.01825 6.57252 7.84542 6.41225 7.66628 6.20812C7.48714 6.00395 7.28511 5.71863 7.0601 5.35212C6.83527 4.98562 6.60199 4.55245 6.3604 4.05263L6.16052 3.69015C6.03556 3.45696 5.86487 3.11742 5.64827 2.67182C5.43153 2.22606 5.23996 1.79486 5.07343 1.37833C5.00686 1.20339 4.90685 1.07021 4.77358 0.978563L4.71104 0.940967C4.66946 0.907704 4.60272 0.872383 4.51116 0.834744C4.41946 0.797148 4.32379 0.770187 4.22374 0.753599L0.799886 0.778459C0.450013 0.778459 0.21262 0.857721 0.0876216 1.01603L0.0375959 1.09091C0.0126049 1.13262 0 1.19924 0 1.29093C0 1.38258 0.024991 1.49506 0.0750167 1.62824C0.574836 2.80295 1.11838 3.93586 1.70564 5.02715C2.29291 6.11844 2.80323 6.9975 3.23631 7.66355C3.66947 8.33008 4.11099 8.95914 4.56087 9.55044C5.01076 10.1419 5.30855 10.521 5.45425 10.6876C5.60012 10.8544 5.7147 10.9791 5.79799 11.0624L6.11045 11.3623C6.31037 11.5622 6.60396 11.8017 6.99135 12.0807C7.37882 12.3599 7.80778 12.6348 8.27845 12.9058C8.7492 13.1763 9.29686 13.397 9.92172 13.5678C10.5465 13.7387 11.1546 13.8073 11.7461 13.7742H13.1832C13.4746 13.749 13.6954 13.6574 13.8455 13.4992L13.8952 13.4366C13.9286 13.3868 13.9599 13.3096 13.9888 13.2056C14.0181 13.1015 14.0326 12.9868 14.0326 12.862C14.0241 12.5039 14.0513 12.1811 14.1136 11.8937C14.1759 11.6064 14.2469 11.3898 14.3263 11.244C14.4057 11.0982 14.4952 10.9752 14.5949 10.8755C14.6947 10.7756 14.7659 10.7151 14.8077 10.6942C14.8491 10.6733 14.8823 10.6591 14.9073 10.6505C15.1072 10.5839 15.3425 10.6484 15.6135 10.8444C15.8843 11.0401 16.1383 11.2819 16.3758 11.5692C16.6133 11.8567 16.8985 12.1793 17.2317 12.5375C17.5651 12.8957 17.8566 13.1621 18.1064 13.3373L18.3562 13.4872C18.523 13.5873 18.7396 13.6789 19.0063 13.7622C19.2724 13.8454 19.5056 13.8663 19.7058 13.8246L22.9046 13.7748C23.221 13.7748 23.4672 13.7224 23.6419 13.6184C23.8168 13.5143 23.9208 13.3996 23.9543 13.2748C23.9877 13.1499 23.9895 13.0082 23.9607 12.8497C23.931 12.6917 23.9018 12.5812 23.8728 12.5187Z" fill="white"/>
</svg>
