<svg width="24" height="18" viewBox="0 0 24 18" fill="none" xmlns="http://www.w3.org/2000/svg">
<path d="M12.2059 17.0479C9.52936 16.9635 6.98405 16.8979 4.43873 16.7995C3.8903 16.776 3.33248 16.6917 2.79811 16.5651C1.79498 16.3307 1.10123 15.726 0.744983 14.737C0.459045 13.9401 0.35592 13.1198 0.28092 12.2854C0.116858 10.326 0.116858 8.36666 0.196545 6.40728C0.24342 5.30103 0.271545 4.18541 0.566858 3.11197C0.744983 2.46978 0.960608 1.84166 1.48092 1.37759C2.02936 0.885407 2.67155 0.590094 3.4028 0.557281C5.40905 0.458844 7.41061 0.336969 9.41686 0.318219C12.1169 0.290094 14.8215 0.327594 17.5215 0.379157C18.6887 0.402594 19.8653 0.463532 21.0231 0.613532C22.0825 0.754157 22.8747 1.34478 23.2965 2.37603C23.62 3.16822 23.7419 3.99791 23.8122 4.84166C23.995 6.95572 23.9997 9.06979 23.8965 11.1838C23.845 12.2573 23.7934 13.3354 23.4887 14.3807C23.1419 15.5807 22.4059 16.3729 21.1778 16.6448C20.6997 16.7479 20.2028 16.7854 19.7153 16.8042C17.1653 16.8932 14.62 16.9729 12.2059 17.0479ZM9.61373 11.7182C11.7512 10.612 13.8653 9.5151 16.0215 8.39478C13.87 7.26978 11.7559 6.16822 9.61373 5.04791C9.61373 7.28385 9.61373 9.48228 9.61373 11.7182Z" fill="white"/>
</svg>
